<?xml version="1.0" encoding="UTF-8"?>
<svg version="1.1" xmlns="http://www.w3.org/2000/svg" width="512" height="512">
<path d="M0 0 C10.35701443 0.52233214 20.59294427 1.44145728 30.87656975 2.77249336 C33.22998777 3.07643386 35.5842539 3.37286124 37.93885803 3.66746521 C44.62064879 4.50446001 51.30108556 5.351819 57.98022461 6.2097168 C62.10192526 6.73859998 66.22484562 7.25696927 70.34863472 7.76930046 C71.89530439 7.9635033 73.44150235 8.16151076 74.98713493 8.36380196 C83.7434933 9.50899861 92.29888196 10.20974349 101.13783932 10.03288364 C107.70754841 9.90604777 114.69337666 10.03670463 121 12 C121.98828125 13.734375 121.98828125 13.734375 123 16 C125.0462129 17.91904712 127.0904774 19.71863458 129.25 21.5 C130.51717773 22.5635035 131.78409724 23.62731475 133.05078125 24.69140625 C133.70256348 25.23555176 134.3543457 25.77969727 135.02587891 26.34033203 C136.96340128 27.969231 138.88128525 29.61823117 140.79296875 31.27734375 C141.40430664 31.80714844 142.01564453 32.33695313 142.64550781 32.8828125 C143.80380193 33.88771944 144.96079573 34.89412803 146.11621094 35.90234375 C152.9597513 41.94931572 152.9597513 41.94931572 161 46 C161.67243237 47.33043486 162.33808248 48.66430265 163 50 C165.01693181 52.11618572 165.01693181 52.11618572 167.4375 54.1875 C168.33984375 54.98027344 169.2421875 55.77304688 170.171875 56.58984375 C173.7215305 59.61489547 177.33239085 62.55771135 180.95703125 65.4921875 C185.13067065 68.93182357 189.20297231 72.48265045 193.28051758 76.03515625 C198.16693127 80.28910749 203.09551552 84.48988657 208.05224609 88.66162109 C211.91121157 91.91121157 211.91121157 91.91121157 213 93 C212.90460938 93.65226562 212.80921875 94.30453125 212.7109375 94.9765625 C211.6523565 103.32211969 215.03419569 107.76416677 219.82373047 114.13525391 C222.73535635 117.94997171 222.73535635 117.94997171 227 120 C227.07927734 121.00740234 227.07927734 121.00740234 227.16015625 122.03515625 C228.34829834 126.22957412 230.76564442 129.04471965 233.4375 132.4375 C234.5261605 133.85177195 235.61337224 135.26716014 236.69921875 136.68359375 C237.24884277 137.39757324 237.7984668 138.11155273 238.36474609 138.84716797 C240.89727823 142.18127791 243.32879992 145.58457661 245.75 149 C246.17982178 149.60513428 246.60964355 150.21026855 247.05249023 150.83374023 C248.03668739 152.22129355 249.01862818 153.61044698 250 155 C257.18173699 151.08268891 262.59298287 145.62555542 267.75 139.375 C271.67857849 134.70052038 275.66447045 130.10625675 279.8125 125.625 C284.55113077 120.49978131 289.24123553 115.3398931 293.6875 109.95703125 C294.22375 109.31121094 294.76 108.66539062 295.3125 108 C295.78300781 107.4225 296.25351562 106.845 296.73828125 106.25 C298 105 298 105 300 105 C301.85917559 106.8451264 303.49154276 108.83819976 305.17578125 110.84375 C306.27983796 112.14875922 307.41571495 113.42886408 308.60546875 114.65625 C310 116.125 310 116.125 312 119 C311.68273142 123.41364287 310.37810215 126.65288979 308.26171875 130.5 C307.69412842 131.54212646 307.12653809 132.58425293 306.54174805 133.65795898 C305.92984619 134.76083252 305.31794434 135.86370605 304.6875 137 C303.73881416 138.73576008 302.79013025 140.47152123 301.84162903 142.2073822 C300.87164696 143.97877962 299.89755019 145.7478459 298.921875 147.51611328 C296.53030222 151.85144655 294.15008601 156.19291193 291.7746582 160.53710938 C290.73480677 162.43734549 289.69178919 164.33585323 288.64526367 166.23242188 C288.17838135 167.08255859 287.71149902 167.93269531 287.23046875 168.80859375 C286.61788208 169.91932251 286.61788208 169.91932251 285.99291992 171.05249023 C284.87582184 173.12390162 284.87582184 173.12390162 284 176 C283.01439389 177.34400833 282.01241685 178.67607028 281 180 C278.78055952 183.34560975 278.78055952 183.34560975 277.625 187.125 C276.64685438 190.05943687 274.7007732 190.566431 272 192 C269.26039462 193.15130655 266.48141048 194.17629916 263.6875 195.1875 C262.94693359 195.46013672 262.20636719 195.73277344 261.44335938 196.01367188 C259.63056598 196.68031203 257.81550684 197.34078541 256 198 C256 198.66 256 199.32 256 200 C254.783125 200.12375 253.56625 200.2475 252.3125 200.375 C249.64919407 200.69440882 247.76250796 201.09715584 245.25 202.125 C242.54154359 203.1782886 241.69538484 202.97424307 239 202 C237.17578125 200.59228516 237.17578125 200.59228516 235.3125 198.7890625 C234.61890381 198.12583984 233.92530762 197.46261719 233.21069336 196.77929688 C232.48116455 196.06837891 231.75163574 195.35746094 231 194.625 C229.48108992 193.16862271 227.96155452 191.71289733 226.44140625 190.2578125 C225.69262207 189.53754883 224.94383789 188.81728516 224.17236328 188.07519531 C221.13393787 185.1726761 218.04393719 182.32935381 214.9375 179.5 C213.308125 178.015 211.67875 176.53 210 175 C209.67 180.94 209.34 186.88 209 193 C205.7 193.99 202.4 194.98 199 196 C199 196.66 199 197.32 199 198 C197.9275 197.95875 196.855 197.9175 195.75 197.875 C192.25339358 197.99155355 190.87683689 198.25334903 188 200 C185.48234499 200.83921834 183.22282707 201.35075997 180.625 201.8125 C174.26597461 203.04479634 168.15696712 205.01201375 162 207 C162 207.66 162 208.32 162 209 C161.01 209.33 160.02 209.66 159 210 C156.0372359 212.9627641 154.44545507 216.04774283 152.875 219.875 C152.52179688 220.71804688 152.16859375 221.56109375 151.8046875 222.4296875 C150.96817302 225.10166094 150.85047367 227.21881027 151 230 C150.34 230 149.68 230 149 230 C148.69255859 231.03060547 148.69255859 231.03060547 148.37890625 232.08203125 C147.97478516 233.43361328 147.97478516 233.43361328 147.5625 234.8125 C147.29566406 235.70582031 147.02882813 236.59914063 146.75390625 237.51953125 C145.76593472 240.77011115 144.90575334 243.14137 143 246 C137.63015634 258.44322349 134.29207129 271.43693107 130.9453125 284.53515625 C130.39390389 286.6704179 129.84196313 288.8055422 129.28952026 290.9405365 C128.14272419 295.38070926 127.00217495 299.82242492 125.86621094 304.26538086 C124.41204531 309.950842 122.94227351 315.63213345 121.46791267 321.31238651 C120.32936435 325.70574052 119.19891683 330.10114749 118.07091904 334.49722099 C117.53195228 336.59376908 116.99050966 338.68968236 116.4465065 340.78492928 C115.68934373 343.70622693 114.94312392 346.63011023 114.19970703 349.55493164 C113.97536484 350.41164963 113.75102264 351.26836761 113.5198822 352.15104675 C112.32375077 356.91150233 111.76805832 361.09115118 112 366 C111.34 366.33 110.68 366.66 110 367 C110 368.32 110 369.64 110 371 C107.703463 372.1482685 106.41686833 372.11561175 103.8671875 372.09765625 C103.06152344 372.09443359 102.25585938 372.09121094 101.42578125 372.08789062 C100.58402344 372.07951172 99.74226563 372.07113281 98.875 372.0625 C98.02550781 372.05798828 97.17601562 372.05347656 96.30078125 372.04882812 C94.20049091 372.03702874 92.1002367 372.01909306 90 372 C89.34 373.65 88.68 375.3 88 377 C82.8262567 377.02501624 77.65254984 377.04300717 72.47875977 377.05493164 C70.72452174 377.05991116 68.97028776 377.0666972 67.21606445 377.07543945 C64.67137648 377.08778878 62.12674408 377.09329214 59.58203125 377.09765625 C58.81792435 377.10281754 58.05381744 377.10797882 57.26655579 377.11329651 C50.42447861 377.11397667 43.89260016 376.53020001 37 376 C33.37 366.43 29.74 356.86 26 347 C25.34 347 24.68 347 24 347 C23.93941406 345.95585937 23.87882813 344.91171875 23.81640625 343.8359375 C23.01440374 337.41708846 20.33640595 331.58431794 17.9375 325.625 C17.00631409 323.28496665 16.07778387 320.94387415 15.15234375 318.6015625 C14.73976318 317.57369629 14.32718262 316.54583008 13.90209961 315.48681641 C13 313 13 313 13 311 C11.76378906 310.75507813 10.52757812 310.51015625 9.25390625 310.2578125 C3.31469976 308.93798884 -2.33994239 306.91851269 -8.0625 304.875 C-9.11888672 304.50246094 -10.17527344 304.12992187 -11.26367188 303.74609375 C-13.84412317 302.83534623 -16.42280144 301.91990295 -19 301 C-21.73371368 306.30697026 -24.15394212 311.59979469 -26.25 317.1875 C-26.518125 317.87263672 -26.78625 318.55777344 -27.0625 319.26367188 C-28.45729174 322.96058161 -29.33843062 326.03882341 -29 330 C-29.66 330 -30.32 330 -31 330 C-31.84378975 332.05824429 -32.67463622 334.12179786 -33.5 336.1875 C-33.9640625 337.33605469 -34.428125 338.48460937 -34.90625 339.66796875 C-35.90805652 342.71990077 -36.23870804 344.83115072 -36 348 C-36.66 348 -37.32 348 -38 348 C-38.30744141 349.03060547 -38.30744141 349.03060547 -38.62109375 350.08203125 C-39.02521484 351.43361328 -39.02521484 351.43361328 -39.4375 352.8125 C-39.70433594 353.70582031 -39.97117188 354.59914063 -40.24609375 355.51953125 C-41.23406528 358.77011115 -42.09424666 361.14137 -44 364 C-44.99 365.98 -45.98 367.96 -47 370 C-53.93 370 -60.86 370 -68 370 C-68.99 371.98 -69.98 373.96 -71 376 C-95.75 375.505 -95.75 375.505 -121 375 C-126.445 352.725 -126.445 352.725 -132 330 C-132.66 330 -133.32 330 -134 330 C-134.06058594 329.443125 -134.12117188 328.88625 -134.18359375 328.3125 C-134.26738281 327.549375 -134.35117188 326.78625 -134.4375 326 C-134.51871094 325.2575 -134.59992188 324.515 -134.68359375 323.75 C-134.78800781 322.8425 -134.89242187 321.935 -135 321 C-135.1134375 319.845 -135.226875 318.69 -135.34375 317.5 C-136.09035564 311.56619307 -137.63122102 305.79817425 -139.0625 300 C-139.34416016 298.84371094 -139.62582031 297.68742187 -139.91601562 296.49609375 C-140.60671217 293.66306724 -141.3014699 290.83110327 -142 288 C-144.49908038 288.80781158 -144.49908038 288.80781158 -147 290 C-147.89386164 292.54775306 -147.89386164 292.54775306 -148 295 C-148.66 295 -149.32 295 -150 295 C-150.51385254 295.94637329 -150.51385254 295.94637329 -151.03808594 296.91186523 C-152.59518995 299.76138661 -154.17224049 302.59936749 -155.75 305.4375 C-156.28882813 306.43072266 -156.82765625 307.42394531 -157.3828125 308.44726562 C-157.91132813 309.39150391 -158.43984375 310.33574219 -158.984375 311.30859375 C-159.46616211 312.18314209 -159.94794922 313.05769043 -160.44433594 313.95874023 C-162 316 -162 316 -164.09863281 316.86743164 C-166 317 -166 317 -167.4375 315.8125 C-167.953125 315.214375 -168.46875 314.61625 -169 314 C-173.15650456 310.4517644 -177.65256775 307.55532597 -182.25 304.625 C-183.76462138 303.65280858 -185.27894683 302.68015597 -186.79296875 301.70703125 C-187.51661621 301.24248535 -188.24026367 300.77793945 -188.98583984 300.29931641 C-192.68740804 297.91146842 -196.34943349 295.46491243 -200 293 C-199.505 291.02 -199.505 291.02 -199 289 C-195.71303767 288.20046862 -194.28976808 287.90341064 -191 289 C-190.34 289.66 -189.68 290.32 -189 291 C-186.68152126 291.7166207 -184.34680297 292.38242027 -182 293 C-181.01 293.33 -180.02 293.66 -179 294 C-177.66893378 294.34227417 -176.33599921 294.67751743 -175 295 C-174.67 294.34 -174.34 293.68 -174 293 C-173.67 293 -173.34 293 -173 293 C-172.14191263 281.51313072 -172.14191263 281.51313072 -172 270 C-171.34 270 -170.68 270 -170 270 C-169.14191263 258.51313072 -169.14191263 258.51313072 -169 247 C-168.34 247 -167.68 247 -167 247 C-166.40667939 242.62426048 -165.86172764 238.42471556 -166 234 C-165.34 234 -164.68 234 -164 234 C-163.40667939 229.62426048 -162.86172764 225.42471556 -163 221 C-162.34 221 -161.68 221 -161 221 C-160.83348938 220.29637329 -160.66697876 219.59274658 -160.49542236 218.86779785 C-158.90832598 212.16198132 -157.3202478 205.45639794 -155.73112869 198.75106049 C-154.91463201 195.30568047 -154.09848517 191.86021844 -153.28320312 188.41455078 C-152.9648582 187.06933252 -152.64649892 185.72411765 -152.328125 184.37890625 C-152.17193632 183.71891254 -152.01574764 183.05891884 -151.85482597 182.37892532 C-150.78592516 177.86537243 -149.70892019 173.35379946 -148.62939453 168.84277344 C-147.65427549 164.76751771 -146.69692348 160.68967641 -145.77294922 156.60253906 C-145.43463855 155.14646852 -145.0962671 153.69041209 -144.7578125 152.234375 C-144.4911377 151.05069336 -144.22446289 149.86701172 -143.94970703 148.64746094 C-143 146 -143 146 -141.33105469 144.5090332 C-139.21863716 143.56920692 -137.29208142 143.33092361 -135 143 C-133.14334132 142.47494491 -131.28689684 141.94854262 -129.43896484 141.39355469 C-126.6375745 140.55405469 -123.81847229 139.77983011 -121 139 C-121 138.34 -121 137.68 -121 137 C-118.69 137 -116.38 137 -114 137 C-114 136.34 -114 135.68 -114 135 C-111.69 135 -109.38 135 -107 135 C-107 134.34 -107 133.68 -107 133 C-106.05125 133.061875 -105.1025 133.12375 -104.125 133.1875 C-99.15672169 133.21810541 -94.6616098 131.57575543 -90 130 C-90 129.34 -90 128.68 -90 128 C-87.69 128 -85.38 128 -83 128 C-83 127.34 -83 126.68 -83 126 C-82.05640625 126.04640625 -81.1128125 126.0928125 -80.140625 126.140625 C-72.12715503 126.11641512 -62.98781312 123.95119727 -56 120 C-53.25567865 116.06320569 -52.93644514 112.72848171 -53 108 C-52.95875 106.700625 -52.9175 105.40125 -52.875 104.0625 C-52.91625 103.051875 -52.9575 102.04125 -53 101 C-52.71479595 99.32442621 -52.40044304 97.65182755 -52 96 C-51.34 96 -50.68 96 -50 96 C-44.39 73.23 -38.78 50.46 -33 27 C-17.56500742 27 -2.37434949 27.09467553 13 28 C12.60619141 27.22285645 12.21238281 26.44571289 11.80664062 25.64501953 C10.34982496 22.76543804 8.89659917 19.88408205 7.44580078 17.00146484 C6.81670569 15.75334278 6.18617759 14.50594195 5.55419922 13.25927734 C4.64696403 11.46901889 3.74527404 9.67595372 2.84375 7.8828125 C2.29912109 6.80402832 1.75449219 5.72524414 1.19335938 4.61376953 C0 2 0 2 0 0 Z M99 11 C99 11.33 99 11.66 99 12 C101.64 12 104.28 12 107 12 C107 11.67 107 11.34 107 11 C104.36 11 101.72 11 99 11 Z M108 12 C108 12.33 108 12.66 108 13 C110.31 13 112.62 13 115 13 C115 12.67 115 12.34 115 12 C112.69 12 110.38 12 108 12 Z M-52 101 C-51 104 -51 104 -51 104 Z M-144 283 C-143 285 -143 285 -143 285 Z M-145 285 C-144 287 -144 287 -144 287 Z M-134 322 C-133 325 -133 325 -133 325 Z " fill="#FBBC30" transform="translate(200,67)"/>
<path d="M0 0 C4.16524175 0.96986918 7.31130829 2.62737287 10.8828125 4.875 C12.38604786 5.78886489 13.89001197 6.70153166 15.39453125 7.61328125 C16.2354834 8.12713379 17.07643555 8.64098633 17.94287109 9.17041016 C22.87468006 12.15687071 27.85514289 15.06087297 32.83163452 17.97201538 C34.71110761 19.07174211 36.58964805 20.17304778 38.46801758 21.2746582 C47.70618849 26.68987128 56.97249853 32.05472585 66.25463867 37.39428711 C74.86881017 42.35190669 83.45393569 47.35819895 92.02075195 52.3972168 C96.53665556 55.0434713 101.0316197 57.62292155 105.7578125 59.875 C105.63019531 60.49503906 105.50257813 61.11507812 105.37109375 61.75390625 C104.3494191 70.8693671 108.6796157 76.06375108 114.05859375 82.8828125 C116.03721725 85.34167746 116.61882948 85.82867233 119.7578125 86.875 C119.83708984 87.88240234 119.83708984 87.88240234 119.91796875 88.91015625 C121.10611084 93.10457412 123.52345692 95.91971965 126.1953125 99.3125 C127.283973 100.72677195 128.37118474 102.14216014 129.45703125 103.55859375 C130.00665527 104.27257324 130.5562793 104.98655273 131.12255859 105.72216797 C133.65509073 109.05627791 136.08661242 112.45957661 138.5078125 115.875 C138.93763428 116.48013428 139.36745605 117.08526855 139.81030273 117.70874023 C140.79449989 119.09629355 141.77644068 120.48544698 142.7578125 121.875 C149.93954949 117.95768891 155.35079537 112.50055542 160.5078125 106.25 C164.43639099 101.57552038 168.42228295 96.98125675 172.5703125 92.5 C177.30894327 87.37478131 181.99904803 82.2148931 186.4453125 76.83203125 C186.9815625 76.18621094 187.5178125 75.54039062 188.0703125 74.875 C188.54082031 74.2975 189.01132812 73.72 189.49609375 73.125 C190.7578125 71.875 190.7578125 71.875 192.7578125 71.875 C194.61698809 73.7201264 196.24935526 75.71319976 197.93359375 77.71875 C199.03765046 79.02375922 200.17352745 80.30386408 201.36328125 81.53125 C202.7578125 83 202.7578125 83 204.7578125 85.875 C204.44054392 90.28864287 203.13591465 93.52788979 201.01953125 97.375 C200.45194092 98.41712646 199.88435059 99.45925293 199.29956055 100.53295898 C198.68765869 101.63583252 198.07575684 102.73870605 197.4453125 103.875 C196.49662666 105.61076008 195.54794275 107.34652123 194.59944153 109.0823822 C193.62945946 110.85377962 192.65536269 112.6228459 191.6796875 114.39111328 C189.28811472 118.72644655 186.90789851 123.06791193 184.5324707 127.41210938 C183.49261927 129.31234549 182.44960169 131.21085323 181.40307617 133.10742188 C180.93619385 133.95755859 180.46931152 134.80769531 179.98828125 135.68359375 C179.37569458 136.79432251 179.37569458 136.79432251 178.75073242 137.92749023 C177.63363434 139.99890162 177.63363434 139.99890162 176.7578125 142.875 C175.77220639 144.21900833 174.77022935 145.55107028 173.7578125 146.875 C171.53837202 150.22060975 171.53837202 150.22060975 170.3828125 154 C169.40466688 156.93443687 167.4585857 157.441431 164.7578125 158.875 C162.01820712 160.02630655 159.23922298 161.05129916 156.4453125 162.0625 C155.70474609 162.33513672 154.96417969 162.60777344 154.20117188 162.88867188 C152.38837848 163.55531203 150.57331934 164.21578541 148.7578125 164.875 C148.7578125 165.535 148.7578125 166.195 148.7578125 166.875 C147.5409375 166.99875 146.3240625 167.1225 145.0703125 167.25 C142.40700657 167.56940882 140.52032046 167.97215584 138.0078125 169 C135.29935609 170.0532886 134.45319734 169.84924307 131.7578125 168.875 C129.93359375 167.46728516 129.93359375 167.46728516 128.0703125 165.6640625 C127.37671631 165.00083984 126.68312012 164.33761719 125.96850586 163.65429688 C125.23897705 162.94337891 124.50944824 162.23246094 123.7578125 161.5 C122.23890242 160.04362271 120.71936702 158.58789733 119.19921875 157.1328125 C118.45043457 156.41254883 117.70165039 155.69228516 116.93017578 154.95019531 C113.89175037 152.0476761 110.80174969 149.20435381 107.6953125 146.375 C106.0659375 144.89 104.4365625 143.405 102.7578125 141.875 C102.4278125 147.815 102.0978125 153.755 101.7578125 159.875 C98.4578125 160.865 95.1578125 161.855 91.7578125 162.875 C91.7578125 163.535 91.7578125 164.195 91.7578125 164.875 C90.6853125 164.83375 89.6128125 164.7925 88.5078125 164.75 C85.01120608 164.86655355 83.63464939 165.12834903 80.7578125 166.875 C78.24015749 167.71421834 75.98063957 168.22575997 73.3828125 168.6875 C67.02378711 169.91979634 60.91477962 171.88701375 54.7578125 173.875 C54.7578125 174.535 54.7578125 175.195 54.7578125 175.875 C53.7678125 176.205 52.7778125 176.535 51.7578125 176.875 C51.0978125 177.535 50.4378125 178.195 49.7578125 178.875 C49.7578125 177.885 49.7578125 176.895 49.7578125 175.875 C40.19349988 177.29101934 30.95108646 179.85164116 21.6355629 182.3765316 C18.77823355 183.15022816 15.91917891 183.91721466 13.05953979 184.68232727 C4.93741845 186.85623527 -3.18239907 189.03857395 -11.29882812 191.23364258 C-16.28219686 192.58088039 -21.2682988 193.91755367 -26.25629044 195.24756813 C-28.15119369 195.75508603 -30.04501733 196.26665296 -31.93770981 196.78235435 C-34.57685184 197.50115867 -37.21925232 198.20650972 -39.86279297 198.90893555 C-40.64104935 199.12445572 -41.41930573 199.33997589 -42.22114563 199.56202698 C-46.2180766 200.60829677 -49.27824737 201.22502437 -53.2421875 199.875 C-55.609375 198.265625 -55.609375 198.265625 -58.1171875 196.125 C-59.07753906 195.31160156 -60.03789062 194.49820313 -61.02734375 193.66015625 C-62.09980035 192.73274364 -63.17137311 191.80430825 -64.2421875 190.875 C-65.42831049 189.85277764 -66.61451119 188.83064544 -67.80078125 187.80859375 C-70.33937198 185.61608356 -72.872526 183.41746918 -75.40234375 181.21484375 C-83.18402716 174.44105863 -90.976175 167.68362249 -98.9921875 161.1875 C-102.5010274 158.34041499 -105.90085387 155.41687448 -109.2421875 152.375 C-115.32403635 146.84167233 -121.67487805 141.65434954 -128.16015625 136.6015625 C-129.07410156 135.88742188 -129.98804688 135.17328125 -130.9296875 134.4375 C-131.75855469 133.79941406 -132.58742187 133.16132813 -133.44140625 132.50390625 C-134.03566406 131.96636719 -134.62992188 131.42882812 -135.2421875 130.875 C-135.2421875 130.215 -135.2421875 129.555 -135.2421875 128.875 C-135.83443115 128.60115479 -136.4266748 128.32730957 -137.03686523 128.04516602 C-139.16336715 126.91682286 -140.73324113 125.74420306 -142.52734375 124.15234375 C-143.13570068 123.61786621 -143.74405762 123.08338867 -144.37084961 122.53271484 C-145.32809937 121.6812085 -145.32809937 121.6812085 -146.3046875 120.8125 C-151.86082724 115.91134405 -157.49558132 111.20644291 -163.36328125 106.6796875 C-163.98332031 106.08414063 -164.60335937 105.48859375 -165.2421875 104.875 C-165.2421875 101.875 -165.2421875 101.875 -163.08203125 99.45703125 C-162.12111738 98.52705494 -161.15322039 97.60425793 -160.1796875 96.6875 C-159.15951726 95.69991785 -158.14128847 94.71032629 -157.125 93.71875 C-156.62774414 93.2340625 -156.13048828 92.749375 -155.61816406 92.25 C-153.83797165 90.47107103 -152.18776785 88.60162209 -150.5546875 86.6875 C-147.60253838 83.22806034 -144.43831899 80.05283502 -141.19921875 76.86328125 C-139.35487764 74.98948958 -137.63586684 73.06186529 -135.9296875 71.0625 C-132.58054886 67.1615582 -128.96282552 63.56211184 -125.30297852 59.95751953 C-122.5314814 57.212372 -119.89820546 54.40509093 -117.3671875 51.4375 C-112.01856511 45.25826802 -106.81069104 42.65683273 -99.2421875 39.875 C-96.53259343 38.87838377 -93.82417497 37.87867584 -91.1171875 36.875 C-90.41859619 36.6162207 -89.72000488 36.35744141 -89.00024414 36.09082031 C-84.87257986 34.54313011 -80.94286537 32.84810055 -77.05078125 30.7890625 C-74.24792221 29.37249875 -71.33013401 28.28121133 -68.40625 27.140625 C-64.1782256 25.44941524 -59.99510887 23.65693669 -55.8046875 21.875 C-49.81685394 19.33395188 -43.82247325 16.94469958 -37.68359375 14.7890625 C-35.1165696 13.82796866 -32.66248034 12.72338353 -30.1796875 11.5625 C-24.34844039 8.83730179 -18.36809871 6.55262286 -12.34741211 4.28588867 C-11.60112549 4.00205322 -10.85483887 3.71821777 -10.0859375 3.42578125 C-9.41755859 3.17481689 -8.74917969 2.92385254 -8.06054688 2.6652832 C-1.77091149 -0.06827611 -1.77091149 -0.06827611 0 0 Z " fill="#FBC932" transform="translate(307.2421875,100.125)"/>
<path d="M0 0 C10.35701443 0.52233214 20.59294427 1.44145728 30.87656975 2.77249336 C33.22998777 3.07643386 35.5842539 3.37286124 37.93885803 3.66746521 C44.62064879 4.50446001 51.30108556 5.351819 57.98022461 6.2097168 C62.10192526 6.73859998 66.22484562 7.25696927 70.34863472 7.76930046 C71.89530439 7.9635033 73.44150235 8.16151076 74.98713493 8.36380196 C83.7434933 9.50899861 92.29888196 10.20974349 101.13783932 10.03288364 C107.70754841 9.90604777 114.69337666 10.03670463 121 12 C121.98828125 13.734375 121.98828125 13.734375 123 16 C125.0462129 17.91904712 127.0904774 19.71863458 129.25 21.5 C130.51717773 22.5635035 131.78409724 23.62731475 133.05078125 24.69140625 C133.70256348 25.23555176 134.3543457 25.77969727 135.02587891 26.34033203 C136.96340128 27.969231 138.88128525 29.61823117 140.79296875 31.27734375 C141.40430664 31.80714844 142.01564453 32.33695313 142.64550781 32.8828125 C143.80380193 33.88771944 144.96079573 34.89412803 146.11621094 35.90234375 C152.9597513 41.94931572 152.9597513 41.94931572 161 46 C161.67243237 47.33043486 162.33808248 48.66430265 163 50 C165.01693181 52.11618572 165.01693181 52.11618572 167.4375 54.1875 C168.33984375 54.98027344 169.2421875 55.77304688 170.171875 56.58984375 C173.72014619 59.61371575 177.32942023 62.55553713 180.953125 65.48828125 C184.50073454 68.41278501 187.97188528 71.41672407 191.4375 74.4375 C197.88142216 80.05411738 204.40602226 85.56027535 211 91 C210.34 91.33 209.68 91.66 209 92 C206.70939644 90.89235198 204.56517017 89.72269466 202.375 88.4375 C201.67552246 88.03547363 200.97604492 87.63344727 200.25537109 87.21923828 C197.83146959 85.82201619 195.41545114 84.41177684 193 83 C191.17194745 81.93607342 189.34381952 80.87227636 187.515625 79.80859375 C183.47926506 77.457392 179.44612099 75.10075664 175.4140625 72.7421875 C168.95731881 68.96933054 162.48048936 65.23188139 156 61.5 C147.32122682 56.49983281 138.65289996 51.48232432 130 46.4375 C129.03964844 45.87804687 128.07929688 45.31859375 127.08984375 44.7421875 C126.17332031 44.20722656 125.25679688 43.67226562 124.3125 43.12109375 C122.99064697 42.35104004 122.99064697 42.35104004 121.64208984 41.56542969 C119.82286687 40.48754596 118.0164488 39.38785129 116.22119141 38.27050781 C115.33608887 37.72104492 114.45098633 37.17158203 113.5390625 36.60546875 C112.75225098 36.10813232 111.96543945 35.6107959 111.15478516 35.09838867 C108.86426939 33.73934929 108.86426939 33.73934929 105.375 33.875 C102.24330945 34.91889685 99.45099929 36.2105343 96.546875 37.76953125 C93.22102739 39.37634413 89.78008925 40.61565111 86.3125 41.875 C81.26217023 43.71895626 76.36061641 45.68772669 71.5 48 C65.96409152 50.6335206 60.34140347 52.79135926 54.58984375 54.890625 C51.29359875 56.10435863 48.09944422 57.34422627 45 59 C40.56606943 61.364109 35.84012291 62.9829923 31.13598633 64.71655273 C22.0762008 68.06146135 13.22228021 71.81973631 4.46484375 75.890625 C2.43040373 76.80628422 0.34463664 77.60696657 -1.75 78.375 C-8.16168387 81.58084193 -12.3767945 87.41086928 -16.984375 92.765625 C-19.39678045 95.43984189 -21.93708378 97.97175878 -24.5 100.5 C-28.28403365 104.2329067 -31.87379647 108.06213381 -35.32421875 112.10546875 C-37.13977378 114.15801931 -39.04759536 116.07746006 -41 118 C-44.88096374 121.82851829 -48.46374517 125.85430551 -52 130 C-53.0700898 131.24888876 -54.14041819 132.49757313 -55.2109375 133.74609375 C-56.00056885 134.66733032 -56.00056885 134.66733032 -56.80615234 135.60717773 C-57.20012207 136.06680908 -57.5940918 136.52644043 -58 137 C-50.15145568 143.85291252 -42.29707126 150.67053368 -34.171875 157.1953125 C-33.45515625 157.79085937 -32.7384375 158.38640625 -32 159 C-31.41347656 159.45632812 -30.82695312 159.91265625 -30.22265625 160.3828125 C-24.61588795 167.79879358 -29.87678071 190.14161157 -31 199 C-31.30948463 200.33906988 -31.63464421 201.67508339 -32 203 C-44.15191052 203.83436166 -56.28341226 204.22419973 -68.46087646 204.44390869 C-71.49640305 204.50110997 -74.53161317 204.56728375 -77.56689453 204.63623047 C-86.21073907 204.83143574 -94.84990481 205.0156628 -103.49609375 205.0390625 C-105.78906387 205.06759862 -108.08203277 205.09623303 -110.375 205.125 C-111.36943115 205.11017578 -112.3638623 205.09535156 -113.38842773 205.08007812 C-119.71241866 205.20090803 -122.851252 206.76265254 -127.33789062 211.2265625 C-128.16063477 212.10441406 -128.16063477 212.10441406 -129 213 C-129.75410156 213.71027344 -130.50820312 214.42054688 -131.28515625 215.15234375 C-134.32440145 218.20494827 -137.27512951 221.27738478 -140.0625 224.5625 C-145.43526364 230.82033607 -151.435319 236.51282036 -157.29394531 242.31005859 C-159.53723815 244.53216407 -161.76941686 246.76514371 -164 249 C-163.05846266 251.44992468 -163.05846266 251.44992468 -159.35180664 252.36938477 C-157.70703892 252.90102922 -156.05958242 253.42439562 -154.41015625 253.94140625 C-153.08726845 254.36629837 -153.08726845 254.36629837 -151.73765564 254.79977417 C-149.83889677 255.40898929 -147.93907618 256.01490303 -146.03833008 256.6178894 C-141.0528939 258.20040444 -136.07582396 259.80886022 -131.09765625 261.4140625 C-129.62723373 261.88715096 -129.62723373 261.88715096 -128.12710571 262.36979675 C-121.05645075 264.64783924 -114.01331451 266.98774183 -107 269.4375 C-106.03545898 269.77410645 -105.07091797 270.11071289 -104.07714844 270.45751953 C-100.71675958 271.63456558 -97.35830629 272.81702472 -94 274 C-86.93945507 276.48475094 -79.87695358 278.96388359 -72.8125 281.4375 C-71.42942154 281.92198608 -71.42942154 281.92198608 -70.0184021 282.41625977 C-53.43106835 288.21959551 -36.76443695 293.73096074 -20 299 C-20.61292736 302.49621551 -21.52618674 305.61467758 -22.84765625 308.90625 C-23.20537109 309.81503906 -23.56308594 310.72382813 -23.93164062 311.66015625 C-24.68608271 313.55473103 -25.4439024 315.44796427 -26.20507812 317.33984375 C-26.56150391 318.24863281 -26.91792969 319.15742188 -27.28515625 320.09375 C-27.61394775 320.91552734 -27.94273926 321.73730469 -28.28149414 322.58398438 C-29.05144654 325.17299182 -29.13125266 327.3139546 -29 330 C-29.66 330 -30.32 330 -31 330 C-31.84378975 332.05824429 -32.67463622 334.12179786 -33.5 336.1875 C-33.9640625 337.33605469 -34.428125 338.48460937 -34.90625 339.66796875 C-35.90805652 342.71990077 -36.23870804 344.83115072 -36 348 C-36.66 348 -37.32 348 -38 348 C-38.30744141 349.03060547 -38.30744141 349.03060547 -38.62109375 350.08203125 C-39.02521484 351.43361328 -39.02521484 351.43361328 -39.4375 352.8125 C-39.70433594 353.70582031 -39.97117188 354.59914063 -40.24609375 355.51953125 C-41.23406528 358.77011115 -42.09424666 361.14137 -44 364 C-44.99 365.98 -45.98 367.96 -47 370 C-53.93 370 -60.86 370 -68 370 C-68.99 371.98 -69.98 373.96 -71 376 C-95.75 375.505 -95.75 375.505 -121 375 C-126.445 352.725 -126.445 352.725 -132 330 C-132.66 330 -133.32 330 -134 330 C-134.06058594 329.443125 -134.12117188 328.88625 -134.18359375 328.3125 C-134.26738281 327.549375 -134.35117188 326.78625 -134.4375 326 C-134.51871094 325.2575 -134.59992188 324.515 -134.68359375 323.75 C-134.78800781 322.8425 -134.89242187 321.935 -135 321 C-135.1134375 319.845 -135.226875 318.69 -135.34375 317.5 C-136.09035564 311.56619307 -137.63122102 305.79817425 -139.0625 300 C-139.34416016 298.84371094 -139.62582031 297.68742187 -139.91601562 296.49609375 C-140.60671217 293.66306724 -141.3014699 290.83110327 -142 288 C-144.49908038 288.80781158 -144.49908038 288.80781158 -147 290 C-147.89386164 292.54775306 -147.89386164 292.54775306 -148 295 C-148.66 295 -149.32 295 -150 295 C-150.51385254 295.94637329 -150.51385254 295.94637329 -151.03808594 296.91186523 C-152.59518995 299.76138661 -154.17224049 302.59936749 -155.75 305.4375 C-156.28882813 306.43072266 -156.82765625 307.42394531 -157.3828125 308.44726562 C-157.91132813 309.39150391 -158.43984375 310.33574219 -158.984375 311.30859375 C-159.46616211 312.18314209 -159.94794922 313.05769043 -160.44433594 313.95874023 C-162 316 -162 316 -164.09863281 316.86743164 C-166 317 -166 317 -167.4375 315.8125 C-167.953125 315.214375 -168.46875 314.61625 -169 314 C-173.15650456 310.4517644 -177.65256775 307.55532597 -182.25 304.625 C-183.76462138 303.65280858 -185.27894683 302.68015597 -186.79296875 301.70703125 C-187.51661621 301.24248535 -188.24026367 300.77793945 -188.98583984 300.29931641 C-192.68740804 297.91146842 -196.34943349 295.46491243 -200 293 C-199.505 291.02 -199.505 291.02 -199 289 C-195.71303767 288.20046862 -194.28976808 287.90341064 -191 289 C-190.34 289.66 -189.68 290.32 -189 291 C-186.68152126 291.7166207 -184.34680297 292.38242027 -182 293 C-181.01 293.33 -180.02 293.66 -179 294 C-177.66893378 294.34227417 -176.33599921 294.67751743 -175 295 C-174.67 294.34 -174.34 293.68 -174 293 C-173.67 293 -173.34 293 -173 293 C-172.14191263 281.51313072 -172.14191263 281.51313072 -172 270 C-171.34 270 -170.68 270 -170 270 C-169.14191263 258.51313072 -169.14191263 258.51313072 -169 247 C-168.34 247 -167.68 247 -167 247 C-166.40667939 242.62426048 -165.86172764 238.42471556 -166 234 C-165.34 234 -164.68 234 -164 234 C-163.40667939 229.62426048 -162.86172764 225.42471556 -163 221 C-162.34 221 -161.68 221 -161 221 C-160.83348938 220.29637329 -160.66697876 219.59274658 -160.49542236 218.86779785 C-158.90832598 212.16198132 -157.3202478 205.45639794 -155.73112869 198.75106049 C-154.91463201 195.30568047 -154.09848517 191.86021844 -153.28320312 188.41455078 C-152.9648582 187.06933252 -152.64649892 185.72411765 -152.328125 184.37890625 C-152.17193632 183.71891254 -152.01574764 183.05891884 -151.85482597 182.37892532 C-150.78592516 177.86537243 -149.70892019 173.35379946 -148.62939453 168.84277344 C-147.65427549 164.76751771 -146.69692348 160.68967641 -145.77294922 156.60253906 C-145.43463855 155.14646852 -145.0962671 153.69041209 -144.7578125 152.234375 C-144.4911377 151.05069336 -144.22446289 149.86701172 -143.94970703 148.64746094 C-143 146 -143 146 -141.33105469 144.5090332 C-139.21863716 143.56920692 -137.29208142 143.33092361 -135 143 C-133.14334132 142.47494491 -131.28689684 141.94854262 -129.43896484 141.39355469 C-126.6375745 140.55405469 -123.81847229 139.77983011 -121 139 C-121 138.34 -121 137.68 -121 137 C-118.69 137 -116.38 137 -114 137 C-114 136.34 -114 135.68 -114 135 C-111.69 135 -109.38 135 -107 135 C-107 134.34 -107 133.68 -107 133 C-106.05125 133.061875 -105.1025 133.12375 -104.125 133.1875 C-99.15672169 133.21810541 -94.6616098 131.57575543 -90 130 C-90 129.34 -90 128.68 -90 128 C-87.69 128 -85.38 128 -83 128 C-83 127.34 -83 126.68 -83 126 C-82.05640625 126.04640625 -81.1128125 126.0928125 -80.140625 126.140625 C-72.12715503 126.11641512 -62.98781312 123.95119727 -56 120 C-53.25567865 116.06320569 -52.93644514 112.72848171 -53 108 C-52.95875 106.700625 -52.9175 105.40125 -52.875 104.0625 C-52.91625 103.051875 -52.9575 102.04125 -53 101 C-52.71479595 99.32442621 -52.40044304 97.65182755 -52 96 C-51.34 96 -50.68 96 -50 96 C-44.39 73.23 -38.78 50.46 -33 27 C-17.56500742 27 -2.37434949 27.09467553 13 28 C12.60619141 27.22285645 12.21238281 26.44571289 11.80664062 25.64501953 C10.34982496 22.76543804 8.89659917 19.88408205 7.44580078 17.00146484 C6.81670569 15.75334278 6.18617759 14.50594195 5.55419922 13.25927734 C4.64696403 11.46901889 3.74527404 9.67595372 2.84375 7.8828125 C2.29912109 6.80402832 1.75449219 5.72524414 1.19335938 4.61376953 C0 2 0 2 0 0 Z M99 11 C99 11.33 99 11.66 99 12 C101.64 12 104.28 12 107 12 C107 11.67 107 11.34 107 11 C104.36 11 101.72 11 99 11 Z M108 12 C108 12.33 108 12.66 108 13 C110.31 13 112.62 13 115 13 C115 12.67 115 12.34 115 12 C112.69 12 110.38 12 108 12 Z M-52 101 C-51 104 -51 104 -51 104 Z M-144 283 C-143 285 -143 285 -143 285 Z M-145 285 C-144 287 -144 287 -144 287 Z M-134 322 C-133 325 -133 325 -133 325 Z " fill="#F98725" transform="translate(200,67)"/>
<path d="M0 0 C10.35701443 0.52233214 20.59294427 1.44145728 30.87656975 2.77249336 C33.22998777 3.07643386 35.5842539 3.37286124 37.93885803 3.66746521 C44.62064879 4.50446001 51.30108556 5.351819 57.98022461 6.2097168 C62.10192526 6.73859998 66.22484562 7.25696927 70.34863472 7.76930046 C71.89530439 7.9635033 73.44150235 8.16151076 74.98713493 8.36380196 C83.7434933 9.50899861 92.29888196 10.20974349 101.13783932 10.03288364 C107.70754841 9.90604777 114.69337666 10.03670463 121 12 C121.98828125 13.734375 121.98828125 13.734375 123 16 C125.0462129 17.91904712 127.0904774 19.71863458 129.25 21.5 C130.51717773 22.5635035 131.78409724 23.62731475 133.05078125 24.69140625 C133.70256348 25.23555176 134.3543457 25.77969727 135.02587891 26.34033203 C136.96340128 27.969231 138.88128525 29.61823117 140.79296875 31.27734375 C141.40430664 31.80714844 142.01564453 32.33695313 142.64550781 32.8828125 C143.80380193 33.88771944 144.96079573 34.89412803 146.11621094 35.90234375 C152.9597513 41.94931572 152.9597513 41.94931572 161 46 C161.67243237 47.33043486 162.33808248 48.66430265 163 50 C165.01693181 52.11618572 165.01693181 52.11618572 167.4375 54.1875 C168.33984375 54.98027344 169.2421875 55.77304688 170.171875 56.58984375 C173.72014619 59.61371575 177.32942023 62.55553713 180.953125 65.48828125 C184.50073454 68.41278501 187.97188528 71.41672407 191.4375 74.4375 C197.88142216 80.05411738 204.40602226 85.56027535 211 91 C210.01 91.495 210.01 91.495 209 92 C206.70939644 90.89235198 204.56517017 89.72269466 202.375 88.4375 C201.67552246 88.03547363 200.97604492 87.63344727 200.25537109 87.21923828 C197.83146959 85.82201619 195.41545114 84.41177684 193 83 C191.17194745 81.93607342 189.34381952 80.87227636 187.515625 79.80859375 C183.47926506 77.457392 179.44612099 75.10075664 175.4140625 72.7421875 C168.95731881 68.96933054 162.48048936 65.23188139 156 61.5 C147.32122682 56.49983281 138.65289996 51.48232432 130 46.4375 C128.55947266 45.59832031 128.55947266 45.59832031 127.08984375 44.7421875 C126.17332031 44.20722656 125.25679687 43.67226562 124.3125 43.12109375 C123.43126465 42.60772461 122.5500293 42.09435547 121.64208984 41.56542969 C119.82286687 40.48754596 118.0164488 39.38785129 116.22119141 38.27050781 C114.8935376 37.44631348 114.8935376 37.44631348 113.5390625 36.60546875 C112.75225098 36.10813232 111.96543945 35.6107959 111.15478516 35.09838867 C108.86426939 33.73934929 108.86426939 33.73934929 105.375 33.875 C102.24330945 34.91889685 99.45099929 36.2105343 96.546875 37.76953125 C93.22102739 39.37634413 89.78008925 40.61565111 86.3125 41.875 C81.26217023 43.71895626 76.36061641 45.68772669 71.5 48 C65.96409152 50.6335206 60.34140347 52.79135926 54.58984375 54.890625 C51.29359875 56.10435863 48.09944422 57.34422627 45 59 C40.56606943 61.364109 35.84012291 62.9829923 31.13598633 64.71655273 C22.99425741 67.72251122 15.03034864 71.03104052 7.1875 74.75 C3.03476519 76.66988754 -0.44429049 77.69628603 -5 78 C-8.51067363 72.56299801 -11.66160144 67.02527694 -14.609375 61.265625 C-15.02165344 60.46517761 -15.43393188 59.66473022 -15.85870361 58.84002686 C-16.72086866 57.16361984 -17.58126218 55.48630064 -18.43994141 53.80810547 C-19.75502767 51.24018264 -21.07833826 48.67661461 -22.40234375 46.11328125 C-23.24268367 44.47681719 -24.08254455 42.84010704 -24.921875 41.203125 C-25.31663025 40.43953674 -25.7113855 39.67594849 -26.11810303 38.88922119 C-26.48228333 38.17457703 -26.84646362 37.45993286 -27.22167969 36.72363281 C-27.54191101 36.09934387 -27.86214233 35.47505493 -28.19207764 34.83184814 C-29 33 -29 33 -30 29 C-27.03 29 -24.06 29 -21 29 C-21 28.34 -21 27.68 -21 27 C-9.64141683 26.81033906 1.66112404 27.39534572 13 28 C12.60619141 27.22285645 12.21238281 26.44571289 11.80664062 25.64501953 C10.34982496 22.76543804 8.89659917 19.88408205 7.44580078 17.00146484 C6.81670569 15.75334278 6.18617759 14.50594195 5.55419922 13.25927734 C4.64696403 11.46901889 3.74527404 9.67595372 2.84375 7.8828125 C2.29912109 6.80402832 1.75449219 5.72524414 1.19335938 4.61376953 C0 2 0 2 0 0 Z M99 11 C99 11.33 99 11.66 99 12 C101.64 12 104.28 12 107 12 C107 11.67 107 11.34 107 11 C104.36 11 101.72 11 99 11 Z M108 12 C108 12.33 108 12.66 108 13 C110.31 13 112.62 13 115 13 C115 12.67 115 12.34 115 12 C112.69 12 110.38 12 108 12 Z " fill="#E7501D" transform="translate(200,67)"/>
<path d="M0 0 C2.12033881 2.12033881 2.55251796 3.19240068 3.44873047 5.98388672 C3.71595917 6.80589569 3.98318787 7.62790466 4.2585144 8.474823 C4.68355759 9.81373093 4.68355759 9.81373093 5.1171875 11.1796875 C5.41561554 12.10282745 5.71404358 13.02596741 6.02151489 13.9770813 C6.97841542 16.94124106 7.92689313 19.90801717 8.875 22.875 C9.81580298 25.79926087 10.75829434 28.72297255 11.70123291 31.64654541 C12.30853419 33.53327878 12.91350101 35.42076527 13.51605225 37.309021 C14.75482384 41.18512679 15.99889231 45.05294179 17.37207031 48.88378906 C17.74686523 49.9353418 18.12166016 50.98689453 18.5078125 52.0703125 C18.82637207 52.92641113 19.14493164 53.78250977 19.47314453 54.66455078 C20.11386835 57.50475655 19.89425836 59.23641504 19 62 C17.71240234 63.72583008 17.71240234 63.72583008 16.0859375 65.26953125 C15.49369385 65.84372803 14.9014502 66.4179248 14.29125977 67.00952148 C13.65889404 67.60450439 13.02652832 68.1994873 12.375 68.8125 C11.07762169 70.06845024 9.78202514 71.32624381 8.48828125 72.5859375 C7.87291504 73.18245117 7.25754883 73.77896484 6.62353516 74.39355469 C4.8339811 76.16427133 3.17565803 78.00511544 1.5625 79.9375 C-0.73249757 82.59983298 -3.0900978 85.15416841 -5.57421875 87.640625 C-6.23687744 88.30457275 -6.89953613 88.96852051 -7.58227539 89.65258789 C-10.14873545 92.20923239 -12.71893303 94.7620279 -15.29394531 97.31005859 C-17.53723815 99.53216407 -19.76941686 101.76514371 -22 104 C-17.56958691 111.32045077 -12.70880941 118.11538018 -7.44921875 124.84375 C-5.36637833 127.52785695 -3.35387912 130.23917968 -1.375 133 C2.52541718 138.41025609 6.57235965 143.70311121 10.625 149 C18.78957924 159.6795274 26.7674755 170.48815225 34.70898438 181.33398438 C42.82489689 192.41123327 51.06043708 203.38774476 59.40625 214.29296875 C60.00824219 215.0823584 60.61023438 215.87174805 61.23046875 216.68505859 C62.41463494 218.23421199 63.60480128 219.77879644 64.80078125 221.31884766 C65.62642578 222.39271729 65.62642578 222.39271729 66.46875 223.48828125 C66.95794922 224.11903564 67.44714844 224.74979004 67.95117188 225.3996582 C69 227 69 227 69 229 C69.66 229 70.32 229 71 229 C70.67 229.66 70.34 230.32 70 231 C45.745 230.505 45.745 230.505 21 230 C15.555 207.725 15.555 207.725 10 185 C9.34 185 8.68 185 8 185 C7.93941406 184.443125 7.87882812 183.88625 7.81640625 183.3125 C7.73261719 182.549375 7.64882812 181.78625 7.5625 181 C7.48128906 180.2575 7.40007812 179.515 7.31640625 178.75 C7.15978516 177.38875 7.15978516 177.38875 7 176 C6.8865625 174.845 6.773125 173.69 6.65625 172.5 C5.90964436 166.56619307 4.36877898 160.79817425 2.9375 155 C2.65583984 153.84371094 2.37417969 152.68742188 2.08398438 151.49609375 C1.39328783 148.66306724 0.6985301 145.83110327 0 143 C-2.49908038 143.80781158 -2.49908038 143.80781158 -5 145 C-5.89386164 147.54775306 -5.89386164 147.54775306 -6 150 C-6.66 150 -7.32 150 -8 150 C-8.51385254 150.94637329 -8.51385254 150.94637329 -9.03808594 151.91186523 C-10.59518995 154.76138661 -12.17224049 157.59936749 -13.75 160.4375 C-14.28882813 161.43072266 -14.82765625 162.42394531 -15.3828125 163.44726562 C-16.17558594 164.86362305 -16.17558594 164.86362305 -16.984375 166.30859375 C-17.46616211 167.18314209 -17.94794922 168.05769043 -18.44433594 168.95874023 C-20 171 -20 171 -22.09863281 171.86743164 C-24 172 -24 172 -25.4375 170.8125 C-25.953125 170.214375 -26.46875 169.61625 -27 169 C-31.15650456 165.4517644 -35.65256775 162.55532597 -40.25 159.625 C-41.76462138 158.65280858 -43.27894683 157.68015597 -44.79296875 156.70703125 C-45.51661621 156.24248535 -46.24026367 155.77793945 -46.98583984 155.29931641 C-50.68740804 152.91146842 -54.34943349 150.46491243 -58 148 C-57.505 146.02 -57.505 146.02 -57 144 C-53.71303767 143.20046862 -52.28976808 142.90341064 -49 144 C-48.34 144.66 -47.68 145.32 -47 146 C-44.68152126 146.7166207 -42.34680297 147.38242027 -40 148 C-39.01 148.33 -38.02 148.66 -37 149 C-35.66893378 149.34227417 -34.33599921 149.67751743 -33 150 C-32.67 149.34 -32.34 148.68 -32 148 C-31.67 148 -31.34 148 -31 148 C-30.14191263 136.51313072 -30.14191263 136.51313072 -30 125 C-29.34 125 -28.68 125 -28 125 C-27.14191263 113.51313072 -27.14191263 113.51313072 -27 102 C-26.34 102 -25.68 102 -25 102 C-24.40667939 97.62426048 -23.86172764 93.42471556 -24 89 C-23.34 89 -22.68 89 -22 89 C-21.40667939 84.62426048 -20.86172764 80.42471556 -21 76 C-20.34 76 -19.68 76 -19 76 C-18.83348938 75.29637329 -18.66697876 74.59274658 -18.49542236 73.86779785 C-16.90832598 67.16198132 -15.3202478 60.45639794 -13.73112869 53.75106049 C-12.91463201 50.30568047 -12.09848517 46.86021844 -11.28320312 43.41455078 C-5.05099588 17.07760053 -5.05099588 17.07760053 -2.609375 7.15625 C-2.31514648 5.95806641 -2.02091797 4.75988281 -1.71777344 3.52539062 C-1 1 -1 1 0 0 Z M-2 138 C-1 140 -1 140 -1 140 Z M-3 140 C-2 142 -2 142 -2 142 Z M8 177 C9 180 9 180 9 180 Z " fill="#FA8025" transform="translate(58,212)"/>
<path d="M0 0 C4.22617499 3.84197726 7.22860993 8.1143446 10.3515625 12.890625 C11.90124755 15.27418366 11.90124755 15.27418366 15 16 C15.05285156 16.67160156 15.10570312 17.34320313 15.16015625 18.03515625 C16.34829834 22.22957412 18.76564442 25.04471965 21.4375 28.4375 C22.5261605 29.85177195 23.61337224 31.26716014 24.69921875 32.68359375 C25.24884277 33.39757324 25.7984668 34.11155273 26.36474609 34.84716797 C28.89727823 38.18127791 31.32879992 41.58457661 33.75 45 C34.17982178 45.60513428 34.60964355 46.21026855 35.05249023 46.83374023 C36.03668739 48.22129355 37.01862818 49.61044698 38 51 C45.18173699 47.08268891 50.59298287 41.62555542 55.75 35.375 C59.67857849 30.70052038 63.66447045 26.10625675 67.8125 21.625 C72.55113077 16.49978131 77.24123553 11.3398931 81.6875 5.95703125 C82.22375 5.31121094 82.76 4.66539062 83.3125 4 C84.01826172 3.13375 84.01826172 3.13375 84.73828125 2.25 C86 1 86 1 88 1 C89.85917559 2.8451264 91.49154276 4.83819976 93.17578125 6.84375 C94.27983796 8.14875922 95.41571495 9.42886408 96.60546875 10.65625 C98 12.125 98 12.125 100 15 C99.68273142 19.41364287 98.37810215 22.65288979 96.26171875 26.5 C95.69412842 27.54212646 95.12653809 28.58425293 94.54174805 29.65795898 C93.92984619 30.76083252 93.31794434 31.86370605 92.6875 33 C91.73881416 34.73576008 90.79013025 36.47152123 89.84162903 38.2073822 C88.87164696 39.97877962 87.89755019 41.7478459 86.921875 43.51611328 C84.53030222 47.85144655 82.15008601 52.19291193 79.7746582 56.53710938 C78.73480677 58.43734549 77.69178919 60.33585323 76.64526367 62.23242188 C76.17838135 63.08255859 75.71149902 63.93269531 75.23046875 64.80859375 C74.82207764 65.54907959 74.41368652 66.28956543 73.99291992 67.05249023 C72.87582184 69.12390162 72.87582184 69.12390162 72 72 C71.01439389 73.34400833 70.01241685 74.67607028 69 76 C66.78055952 79.34560975 66.78055952 79.34560975 65.625 83.125 C64.64685438 86.05943687 62.7007732 86.566431 60 88 C57.26039462 89.15130655 54.48141048 90.17629916 51.6875 91.1875 C50.94693359 91.46013672 50.20636719 91.73277344 49.44335938 92.01367188 C47.63056598 92.68031203 45.81550684 93.34078541 44 94 C44 94.66 44 95.32 44 96 C42.1746875 96.185625 42.1746875 96.185625 40.3125 96.375 C37.64919407 96.69440882 35.76250796 97.09715584 33.25 98.125 C30.54267553 99.17784841 29.69443388 98.97208847 27 98 C25.19165039 96.6081543 25.19165039 96.6081543 23.34765625 94.82421875 C22.65921631 94.1679248 21.97077637 93.51163086 21.26147461 92.83544922 C19.77278114 91.38129966 18.28534953 89.92585733 16.79907227 88.46923828 C13.32845791 85.08996562 9.94744858 81.85098559 5.9921875 79.04296875 C1.87256552 76.04438463 -2.11407555 73.08564315 -3.57324219 68.00341797 C-4.29477705 62.61587777 -3.76799904 57.26837884 -3.29980469 51.87695312 C-2.93465062 47.15492823 -2.73191419 42.43483273 -2.5390625 37.703125 C-2.23361063 30.42677478 -1.91257146 23.15191937 -1.53515625 15.87890625 C-1.49649445 15.0879657 -1.45783264 14.29702515 -1.41799927 13.4821167 C-1.17609802 8.93368921 -0.71277576 4.49932704 0 0 Z " fill="#FA9226" transform="translate(412,171)"/>
<path d="M0 0 C0.66 0.66 1.32 1.32 2 2 C4.23157489 2.43504508 4.23157489 2.43504508 6.89453125 2.5625 C7.9707373 2.6361377 9.04694336 2.70977539 10.15576172 2.78564453 C11.36248535 2.85638184 12.56920898 2.92711914 13.8125 3 C15.07594238 3.07976074 16.33938477 3.15952148 17.64111328 3.24169922 C40.0689323 4.6002059 62.54622937 5.22513161 85 6 C85 6.99 85 7.98 85 9 C85.99 9.495 85.99 9.495 87 10 C85.79053711 10.46841309 85.79053711 10.46841309 84.55664062 10.94628906 C81.5287378 12.12110144 78.50222095 13.29940109 75.4765625 14.47998047 C74.17371132 14.98753884 72.87033673 15.49375601 71.56640625 15.99853516 C65.1762951 18.47323311 58.85152476 20.94715346 52.77148438 24.12402344 C49.61768365 25.68353791 46.30995722 26.81970518 43 28 C36.87757834 30.21568796 36.87757834 30.21568796 31 33 C26.56606943 35.364109 21.84012291 36.9829923 17.13598633 38.71655273 C8.99425741 41.72251122 1.03034864 45.03104052 -6.8125 48.75 C-10.96523481 50.66988754 -14.44429049 51.69628603 -19 52 C-22.51067363 46.56299801 -25.66160144 41.02527694 -28.609375 35.265625 C-29.02165344 34.46517761 -29.43393188 33.66473022 -29.85870361 32.84002686 C-30.72086866 31.16361984 -31.58126218 29.48630064 -32.43994141 27.80810547 C-33.75502767 25.24018264 -35.07833826 22.67661461 -36.40234375 20.11328125 C-37.24268367 18.47681719 -38.08254455 16.84010704 -38.921875 15.203125 C-39.31663025 14.43953674 -39.7113855 13.67594849 -40.11810303 12.88922119 C-40.48228333 12.17457703 -40.84646362 11.45993286 -41.22167969 10.72363281 C-41.54191101 10.09934387 -41.86214233 9.47505493 -42.19207764 8.83184814 C-43 7 -43 7 -44 3 C-41.03 3 -38.06 3 -35 3 C-35 2.34 -35 1.68 -35 1 C-33.97527588 1.00523682 -32.95055176 1.01047363 -31.89477539 1.01586914 C-28.10604724 1.03391969 -24.31732291 1.0454322 -20.52856445 1.05493164 C-18.88630536 1.05997174 -17.24405077 1.06680378 -15.60180664 1.07543945 C-13.24624521 1.08751926 -10.89074291 1.09323139 -8.53515625 1.09765625 C-7.79660904 1.10281754 -7.05806183 1.10797882 -6.2971344 1.11329651 C-4.53101912 1.1134925 -2.76502854 1.06194719 -1 1 C-0.67 0.67 -0.34 0.34 0 0 Z " fill="#EC6B21" transform="translate(214,93)"/>
<path d="M0 0 C3.96 0 7.92 0 12 0 C12 0.66 12 1.32 12 2 C9.03 2 6.06 2 3 2 C7.9813503 12.11017478 13.08739869 22.15833602 18.22631836 32.18917847 C18.94970134 33.60328325 19.67106113 35.01842485 20.39038086 36.43460083 C21.41745682 38.45539347 22.45196778 40.47221359 23.48828125 42.48828125 C23.79743973 43.10020325 24.10659821 43.71212524 24.42512512 44.34259033 C25.96857146 47.32577912 27.42940082 49.80580124 30 52 C29.52691406 52.38929688 29.05382812 52.77859375 28.56640625 53.1796875 C23.74050362 57.26241994 19.53253735 61.64514291 15.359375 66.38671875 C12.94597055 69.05984388 10.43875013 71.59621009 7.875 74.125 C4.30967606 77.6463076 0.96666651 81.26431943 -2.2890625 85.0703125 C-4.74275736 87.83772177 -7.38635271 90.39701453 -10.0234375 92.98828125 C-11.98641766 94.98617608 -13.80920671 97.05574268 -15.625 99.1875 C-18.50183878 102.5405052 -21.51990191 105.28382588 -25 108 C-24.25791061 101.19621199 -22.90307528 94.64393347 -21.37304688 87.97851562 C-20.32295654 83.21272101 -19.85739334 78.91062922 -20 74 C-19.71479595 72.32442621 -19.40044304 70.65182755 -19 69 C-18.34 69 -17.68 69 -17 69 C-11.39 46.23 -5.78 23.46 0 0 Z M-19 74 C-18 77 -18 77 -18 77 Z " fill="#FA9325" transform="translate(167,94)"/>
<path d="M0 0 C1.85917559 1.8451264 3.49154276 3.83819976 5.17578125 5.84375 C6.27983796 7.14875922 7.41571495 8.42886408 8.60546875 9.65625 C10 11.125 10 11.125 12 14 C11.68273142 18.41364287 10.37810215 21.65288979 8.26171875 25.5 C7.41033325 27.0631897 7.41033325 27.0631897 6.54174805 28.65795898 C5.92984619 29.76083252 5.31794434 30.86370605 4.6875 32 C3.73881416 33.73576008 2.79013025 35.47152123 1.84162903 37.2073822 C0.87164696 38.97877962 -0.10244981 40.7478459 -1.078125 42.51611328 C-3.46969778 46.85144655 -5.84991399 51.19291193 -8.2253418 55.53710938 C-9.26519323 57.43734549 -10.30821081 59.33585323 -11.35473633 61.23242188 C-12.05505981 62.50762695 -12.05505981 62.50762695 -12.76953125 63.80859375 C-13.17792236 64.54907959 -13.58631348 65.28956543 -14.00708008 66.05249023 C-15.12417816 68.12390162 -15.12417816 68.12390162 -16 71 C-16.98560611 72.34400833 -17.98758315 73.67607028 -19 75 C-21.2128656 78.39337636 -21.2128656 78.39337636 -22.5 82.1875 C-23 84 -23 84 -26 86 C-26.75023437 84.93523437 -27.50046875 83.87046875 -28.2734375 82.7734375 C-29.00953247 81.72978027 -29.00953247 81.72978027 -29.76049805 80.66503906 C-30.8436839 79.12862847 -31.92586588 77.59150968 -33.00708008 76.05371094 C-35.63558555 72.32133363 -38.27810239 68.60330356 -40.98828125 64.9296875 C-41.44477051 64.30658691 -41.90125977 63.68348633 -42.37158203 63.04150391 C-43.22878221 61.87450299 -44.09273583 60.71242329 -44.96435547 59.55615234 C-47.26600128 56.40900398 -48.57429325 53.89629906 -49 50 C-48.484375 49.62875 -47.96875 49.2575 -47.4375 48.875 C-41.75218781 44.50168293 -36.81502667 39.90803421 -32.25 34.375 C-28.32142151 29.70052038 -24.33552955 25.10625675 -20.1875 20.625 C-15.44886923 15.49978131 -10.75876447 10.3398931 -6.3125 4.95703125 C-5.77625 4.31121094 -5.24 3.66539062 -4.6875 3 C-4.21699219 2.4225 -3.74648438 1.845 -3.26171875 1.25 C-2 0 -2 0 0 0 Z " fill="#ED6C21" transform="translate(500,172)"/>
<path d="M0 0 C2.12033881 2.12033881 2.55251796 3.19240068 3.44873047 5.98388672 C3.71595917 6.80589569 3.98318787 7.62790466 4.2585144 8.474823 C4.54187653 9.36742828 4.82523865 10.26003357 5.1171875 11.1796875 C5.41561554 12.10282745 5.71404358 13.02596741 6.02151489 13.9770813 C6.97841542 16.94124106 7.92689313 19.90801717 8.875 22.875 C9.81580298 25.79926087 10.75829434 28.72297255 11.70123291 31.64654541 C12.30853419 33.53327878 12.91350101 35.42076527 13.51605225 37.309021 C14.75482384 41.18512679 15.99889231 45.05294179 17.37207031 48.88378906 C17.74686523 49.9353418 18.12166016 50.98689453 18.5078125 52.0703125 C18.82637207 52.92641113 19.14493164 53.78250977 19.47314453 54.66455078 C20.11386835 57.50475655 19.89425836 59.23641504 19 62 C17.71240234 63.72583008 17.71240234 63.72583008 16.0859375 65.26953125 C15.49369385 65.84372803 14.9014502 66.4179248 14.29125977 67.00952148 C13.65889404 67.60450439 13.02652832 68.1994873 12.375 68.8125 C11.07762169 70.06845024 9.78202514 71.32624381 8.48828125 72.5859375 C7.56523193 73.48070801 7.56523193 73.48070801 6.62353516 74.39355469 C4.8339811 76.16427133 3.17565803 78.00511544 1.5625 79.9375 C-1.92916595 84.04534229 -5.70826431 87.85901823 -9.5 91.6875 C-10.12962646 92.33001709 -10.75925293 92.97253418 -11.40795898 93.63452148 C-15.35046974 97.5852533 -19.37032133 100.87973976 -24 104 C-25.38697924 101.22604152 -24.68110321 99.02228416 -24.2578125 96.04296875 C-23.95982525 93.68164556 -23.92570907 91.37730966 -24 89 C-23.34 89 -22.68 89 -22 89 C-21.40667939 84.62426048 -20.86172764 80.42471556 -21 76 C-20.34 76 -19.68 76 -19 76 C-18.75023407 74.94455994 -18.75023407 74.94455994 -18.49542236 73.86779785 C-16.90832598 67.16198132 -15.3202478 60.45639794 -13.73112869 53.75106049 C-12.91463201 50.30568047 -12.09848517 46.86021844 -11.28320312 43.41455078 C-5.05099588 17.07760053 -5.05099588 17.07760053 -2.609375 7.15625 C-2.31514648 5.95806641 -2.02091797 4.75988281 -1.71777344 3.52539062 C-1 1 -1 1 0 0 Z " fill="#F05E1D" transform="translate(58,212)"/>
<path d="M0 0 C7.61890312 3.38421045 13.89460799 9.95053027 20 15.5 C23.54652649 18.71845865 27.13917393 21.86410135 30.8125 24.9375 C31.68519531 25.66839844 32.55789063 26.39929688 33.45703125 27.15234375 C35.89727715 29.09950666 35.89727715 29.09950666 38.69921875 30.00390625 C41.57126448 31.24732163 41.74333816 32.21702822 43 35 C45.01693181 37.11618572 45.01693181 37.11618572 47.4375 39.1875 C48.33984375 39.98027344 49.2421875 40.77304688 50.171875 41.58984375 C53.72014619 44.61371575 57.32942023 47.55553713 60.953125 50.48828125 C64.50073454 53.41278501 67.97188528 56.41672407 71.4375 59.4375 C77.88142216 65.05411738 84.40602226 70.56027535 91 76 C90.01 76.495 90.01 76.495 89 77 C86.70939644 75.89235198 84.56517017 74.72269466 82.375 73.4375 C81.32578369 72.83446045 81.32578369 72.83446045 80.25537109 72.21923828 C77.83146959 70.82201619 75.41545114 69.41177684 73 68 C71.17194745 66.93607342 69.34381952 65.87227636 67.515625 64.80859375 C63.47926506 62.457392 59.44612099 60.10075664 55.4140625 57.7421875 C48.95731881 53.96933054 42.48048936 50.23188139 36 46.5 C27.32122682 41.49983281 18.65289996 36.48232432 10 31.4375 C8.55947266 30.59832031 8.55947266 30.59832031 7.08984375 29.7421875 C-8.78965837 20.47356109 -8.78965837 20.47356109 -14 17 C-12.91138672 15.95779297 -12.91138672 15.95779297 -11.80078125 14.89453125 C-8.95103872 12.04478872 -6.57772831 8.9339295 -4.1875 5.6875 C-3.78080078 5.13771484 -3.37410156 4.58792969 -2.95507812 4.02148438 C-1.96631389 2.68374453 -0.98261415 1.34226377 0 0 Z " fill="#E16B22" transform="translate(320,82)"/>
<path d="M0 0 C1.71378017 3.42756035 -0.13719972 7.09668853 -1.08959961 10.65307617 C-1.32353928 11.54920624 -1.55747894 12.4453363 -1.79850769 13.36862183 C-2.30888144 15.32013974 -2.82251532 17.2708072 -3.33897209 19.22072411 C-4.15645781 22.30850825 -4.96490167 25.39853023 -5.77088928 28.48933411 C-7.77575318 36.17047207 -9.79480887 43.84786117 -11.81622314 51.5246582 C-13.52140767 58.0013856 -15.21983762 64.47980439 -16.90869331 70.96080971 C-17.70412529 74.00198881 -18.50951807 77.04041835 -19.31517029 80.0789032 C-19.80430326 81.95244989 -20.29294124 83.82612589 -20.78100586 85.69995117 C-21.00699463 86.54126083 -21.2329834 87.3825705 -21.46582031 88.24937439 C-22.68522568 92.98135915 -23.23221503 97.11290701 -23 102 C-23.99 102.495 -23.99 102.495 -25 103 C-25 104.32 -25 105.64 -25 107 C-27.80903621 108.4045181 -30.18114508 108.13209254 -33.3125 108.125 C-34.44300781 108.12757813 -35.57351563 108.13015625 -36.73828125 108.1328125 C-39.62153596 108.01541051 -42.1990855 107.66212988 -45 107 C-43.08220401 100.99969189 -40.92392731 95.16861919 -38.47265625 89.3671875 C-38.13142227 88.5524144 -37.79018829 87.7376413 -37.43861389 86.8981781 C-36.31669007 84.22232286 -35.18980628 81.54859167 -34.0625 78.875 C-33.27118912 76.99248733 -32.48001335 75.10991786 -31.68896484 73.22729492 C-29.13255323 67.14874804 -26.5670458 61.07406213 -24 55 C-23.55054016 53.93593933 -23.10108032 52.87187866 -22.63800049 51.77557373 C-19.91183454 45.32268414 -17.18119045 38.87171479 -14.4447937 32.42315674 C-13.57016805 30.36172838 -12.69623776 28.30000484 -11.82302856 26.23797607 C-10.59562507 23.34110242 -9.36473646 20.44573493 -8.1328125 17.55078125 C-7.59322655 16.27526649 -7.59322655 16.27526649 -7.04273987 14.97398376 C-4.87030412 9.88217287 -2.52230973 4.92829763 0 0 Z " fill="#E7501D" transform="translate(335,331)"/>
<path d="M0 0 C1 2 1 2 0.28735352 4.2590332 C-0.28607788 5.64094849 -0.28607788 5.64094849 -0.87109375 7.05078125 C-1.28037109 8.05947266 -1.68964844 9.06816406 -2.11132812 10.10742188 C-2.99073168 12.23275505 -3.87093147 14.35775895 -4.75195312 16.48242188 C-5.16251953 17.49498047 -5.57308594 18.50753906 -5.99609375 19.55078125 C-6.37950928 20.47544189 -6.7629248 21.40010254 -7.15795898 22.3527832 C-8.02033693 25.06393545 -8.16382742 27.17533422 -8 30 C-8.66 30 -9.32 30 -10 30 C-10.84378975 32.05824429 -11.67463622 34.12179786 -12.5 36.1875 C-12.9640625 37.33605469 -13.428125 38.48460937 -13.90625 39.66796875 C-14.90805652 42.71990077 -15.23870804 44.83115072 -15 48 C-15.66 48 -16.32 48 -17 48 C-17.20496094 48.68707031 -17.40992188 49.37414062 -17.62109375 50.08203125 C-17.89050781 50.98308594 -18.15992188 51.88414062 -18.4375 52.8125 C-18.70433594 53.70582031 -18.97117188 54.59914063 -19.24609375 55.51953125 C-20.23406528 58.77011115 -21.09424666 61.14137 -23 64 C-23.99 65.98 -24.98 67.96 -26 70 C-32.93 69.67 -39.86 69.34 -47 69 C-45.38280985 64.95702462 -44.22154912 62.70670484 -41.6875 59.375 C-38.0016496 54.41200574 -34.47619702 49.36186762 -31 44.25 C-25.91530657 36.78414501 -20.7864663 29.35049979 -15.625 21.9375 C-14.97144531 20.99874023 -14.31789062 20.05998047 -13.64453125 19.09277344 C-12.38515544 17.28514594 -11.12508632 15.47800125 -9.86425781 13.67138672 C-8.57575499 11.82502764 -7.28874034 9.97762945 -6.00292969 8.12939453 C-5.37032227 7.2217334 -4.73771484 6.31407227 -4.0859375 5.37890625 C-3.51665527 4.56107666 -2.94737305 3.74324707 -2.36083984 2.90063477 C-1 1 -1 1 0 0 Z " fill="#E64E1D" transform="translate(179,367)"/>
<path d="M0 0 C4.13993096 0.44041819 7.80986807 1.18958674 11.75390625 2.54296875 C12.55256104 2.81520264 13.35121582 3.08743652 14.17407227 3.36791992 C15.07790649 3.68079956 15.07790649 3.68079956 16 4 C20.88411152 32.92785337 20.88411152 32.92785337 22.8125 45.4375 C22.99776245 46.60394043 22.99776245 46.60394043 23.18676758 47.79394531 C23.86021813 52.25067604 24.11284119 56.49229127 24 61 C22.13823386 58.20735078 21.03973929 55.78846874 19.8359375 52.67578125 C19.43632812 51.64775391 19.03671875 50.61972656 18.625 49.56054688 C18.2125 48.48869141 17.8 47.41683594 17.375 46.3125 C16.95476562 45.22904297 16.53453125 44.14558594 16.1015625 43.02929688 C15.06447982 40.35409496 14.03076372 37.67764159 13 35 C12.34 35 11.68 35 11 35 C10.93941406 33.95714844 10.87882813 32.91429687 10.81640625 31.83984375 C10.01181708 25.40171136 7.33576916 19.54332804 4.9375 13.5625 C4.0079512 11.21009479 3.07950156 8.85725485 2.15234375 6.50390625 C1.73976318 5.47080322 1.32718262 4.4377002 0.90209961 3.37329102 C0 1 0 1 0 0 Z " fill="#FA9626" transform="translate(213,379)"/>
<path d="M0 0 C1.670625 0.061875 1.670625 0.061875 3.375 0.125 C3.375 0.785 3.375 1.445 3.375 2.125 C3.98988281 2.32996094 4.60476563 2.53492188 5.23828125 2.74609375 C10.30664063 4.43554688 10.30664063 4.43554688 15.375 6.125 C16.70606622 6.46727417 18.03900079 6.80251743 19.375 7.125 C19.705 6.465 20.035 5.805 20.375 5.125 C21.76085688 10.84165962 22.27672167 15.88355019 19.375 21.125 C15.96566384 19.07764778 12.56653905 17.01441858 9.17602539 14.93603516 C8.02148901 14.23141289 6.86426619 13.53117276 5.7043457 12.83544922 C4.03676516 11.83418672 2.37954269 10.81573651 0.72265625 9.796875 C-0.27757568 9.1894043 -1.27780762 8.58193359 -2.30834961 7.95605469 C-4.625 6.125 -4.625 6.125 -5.58422852 4.02050781 C-5.59768311 3.39499023 -5.6111377 2.76947266 -5.625 2.125 C-3.625 0.125 -3.625 0.125 0 0 Z " fill="#E54C1C" transform="translate(5.625,354.875)"/>
<path d="M0 0 C0.33 0 0.66 0 1 0 C0.42435004 7.82360626 -1.37069686 15.24504559 -3.32861328 22.8137207 C-3.87927375 24.95411186 -4.41061255 27.09874769 -4.94140625 29.24414062 C-5.29050578 30.60967231 -5.64072542 31.97491823 -5.9921875 33.33984375 C-6.30526855 34.57081787 -6.61834961 35.80179199 -6.94091797 37.07006836 C-8 40 -8 40 -11 42 C-9.6767289 33.66130905 -7.68595012 25.54870259 -5.48608398 17.40771484 C-4.92939782 15.3449783 -4.38129531 13.28008546 -3.83398438 11.21484375 C-3.48226892 9.90090824 -3.13007387 8.58710099 -2.77734375 7.2734375 C-2.30155884 5.50105713 -2.30155884 5.50105713 -1.81616211 3.69287109 C-1 1 -1 1 0 0 Z " fill="#F25B1E" transform="translate(321,382)"/>
<path d="M0 0 C4.81732788 3.05344475 9.08134412 6.50313537 13.375 10.25 C14.01566406 10.80429688 14.65632813 11.35859375 15.31640625 11.9296875 C16.88022286 13.28343919 18.44048294 14.64129747 20 16 C19.34 16.33 18.68 16.66 18 17 C16.32006836 16.3190918 16.32006836 16.3190918 14.33984375 15.19921875 C13.62892578 14.79896484 12.91800781 14.39871094 12.18554688 13.98632812 C11.44369141 13.55771484 10.70183594 13.12910156 9.9375 12.6875 C9.19177734 12.27048828 8.44605469 11.85347656 7.67773438 11.42382812 C2.13313988 8.26627976 2.13313988 8.26627976 1 6 C1.99 6 2.98 6 4 6 C3.34 5.38125 2.68 4.7625 2 4.125 C0 2 0 2 0 0 Z " fill="#C65C23" transform="translate(391,142)"/>
<path d="M0 0 C16.17 0 32.34 0 49 0 C49 0.33 49 0.66 49 1 C32.83 1 16.66 1 0 1 C0 0.67 0 0.34 0 0 Z " fill="#FF7D3E" transform="translate(79,443)"/>
<path d="M0 0 C0.33 0.66 0.66 1.32 1 2 C0.09239638 4.59732225 -0.87067892 7.09450975 -1.9375 9.625 C-2.22818359 10.33140625 -2.51886719 11.0378125 -2.81835938 11.765625 C-3.53867488 13.51327573 -4.26845694 15.25701915 -5 17 C-5.66 16.67 -6.32 16.34 -7 16 C-6.125 11.125 -6.125 11.125 -5 10 C-5.33 9.34 -5.66 8.68 -6 8 C-4.02 5.36 -2.04 2.72 0 0 Z " fill="#DF431E" transform="translate(179,367)"/>
<path d="M0 0 C1.12786566 4.51146266 0.50999951 5.47817009 -1.75585938 9.328125 C-2.14580078 9.96234375 -2.53574219 10.5965625 -2.9375 11.25 C-3.32357422 11.8996875 -3.70964844 12.549375 -4.10742188 13.21875 C-5.06058418 14.81912129 -6.02885924 16.4104742 -7 18 C-7.99 18 -8.98 18 -10 18 C-6.7 12.06 -3.4 6.12 0 0 Z " fill="#F97822" transform="translate(502,203)"/>
<path d="M0 0 C5.94 0.33 11.88 0.66 18 1 C18 1.66 18 2.32 18 3 C11.73 3 5.46 3 -1 3 C-0.67 2.01 -0.34 1.02 0 0 Z " fill="#F55A1F" transform="translate(133,433)"/>
<path d="M0 0 C7.59 0 15.18 0 23 0 C23 0.33 23 0.66 23 1 C15.41 1 7.82 1 0 1 C0 0.67 0 0.34 0 0 Z " fill="#FF0000" transform="translate(251,445)"/>
<path d="M0 0 C0.66 0.99 1.32 1.98 2 3 C-4.6 3 -11.2 3 -18 3 C-18 2.67 -18 2.34 -18 2 C-12.06 2 -6.12 2 0 2 C0 1.34 0 0.68 0 0 Z " fill="#F37316" transform="translate(210,91)"/>
<path d="M0 0 C0.99 0.33 1.98 0.66 3 1 C3 1.66 3 2.32 3 3 C2.34 3 1.68 3 1 3 C1.33 3.99 1.66 4.98 2 6 C0.68 5.67 -0.64 5.34 -2 5 C-1.125 1.125 -1.125 1.125 0 0 Z " fill="#F35D1E" transform="translate(2,355)"/>
<path d="M0 0 C6.27 0 12.54 0 19 0 C19 0.33 19 0.66 19 1 C12.73 1 6.46 1 0 1 C0 0.67 0 0.34 0 0 Z " fill="#FF7010" transform="translate(167,92)"/>
<path d="M0 0 C1.98 0 3.96 0 6 0 C5.34 1.65 4.68 3.3 4 5 C3.01 4.67 2.02 4.34 1 4 C0.3125 1.9375 0.3125 1.9375 0 0 Z " fill="#F5601E" transform="translate(200,67)"/>
<path d="M0 0 C0.66 0.66 1.32 1.32 2 2 C1.9765625 5.2578125 1.9765625 5.2578125 1.625 9.125 C1.51414062 10.40632812 1.40328125 11.68765625 1.2890625 13.0078125 C1.19367188 13.99523437 1.09828125 14.98265625 1 16 C0.67 16 0.34 16 0 16 C0 10.72 0 5.44 0 0 Z " fill="#FFDB36" transform="translate(410,243)"/>
<path d="M0 0 C4.29 0 8.58 0 13 0 C13 0.33 13 0.66 13 1 C8.71 1 4.42 1 0 1 C0 0.67 0 0.34 0 0 Z " fill="#F8F869" transform="translate(275,445)"/>
<path d="M0 0 C4.29 0 8.58 0 13 0 C13 0.33 13 0.66 13 1 C8.71 1 4.42 1 0 1 C0 0.67 0 0.34 0 0 Z " fill="#FFEB00" transform="translate(237,444)"/>
<path d="M0 0 C4.29 0 8.58 0 13 0 C13 0.33 13 0.66 13 1 C8.71 1 4.42 1 0 1 C0 0.67 0 0.34 0 0 Z " fill="#FF2D00" transform="translate(295,440)"/>
<path d="M0 0 C2.97 0 5.94 0 9 0 C9 0.33 9 0.66 9 1 C6.03 1 3.06 1 0 1 C0 0.67 0 0.34 0 0 Z " fill="#F45703" transform="translate(132,437)"/>
<path d="M0 0 C2.97 0 5.94 0 9 0 C9 0.33 9 0.66 9 1 C6.03 1 3.06 1 0 1 C0 0.67 0 0.34 0 0 Z " fill="#C63D00" transform="translate(257,72)"/>
<path d="M0 0 C2.97 0 5.94 0 9 0 C9 0.33 9 0.66 9 1 C6.03 1 3.06 1 0 1 C0 0.67 0 0.34 0 0 Z " fill="#F06300" transform="translate(224,68)"/>
<path d="M0 0 C0.33 0 0.66 0 1 0 C1 2.64 1 5.28 1 8 C0.67 8 0.34 8 0 8 C0 5.36 0 2.72 0 0 Z " fill="#FF8A08" transform="translate(26,352)"/>
<path d="M0 0 C0.33 0 0.66 0 1 0 C1 2.64 1 5.28 1 8 C0.67 8 0.34 8 0 8 C0 5.36 0 2.72 0 0 Z " fill="#FF951A" transform="translate(29,329)"/>
<path d="M0 0 C3.875 1.75 3.875 1.75 5 4 C1.125 2.25 1.125 2.25 0 0 Z " fill="#F7A408" transform="translate(431,263)"/>
<path d="M0 0 C3.875 1.75 3.875 1.75 5 4 C1.125 2.25 1.125 2.25 0 0 Z " fill="#FF9A15" transform="translate(415,248)"/>
<path d="M0 0 C2.64 0 5.28 0 8 0 C8 0.33 8 0.66 8 1 C5.36 1 2.72 1 0 1 C0 0.67 0 0.34 0 0 Z " fill="#DF3708" transform="translate(290,76)"/>
<path d="M0 0 C2.64 0 5.28 0 8 0 C8 0.33 8 0.66 8 1 C5.36 1 2.72 1 0 1 C0 0.67 0 0.34 0 0 Z " fill="#E73500" transform="translate(282,75)"/>
<path d="M0 0 C2.64 0 5.28 0 8 0 C8 0.33 8 0.66 8 1 C5.36 1 2.72 1 0 1 C0 0.67 0 0.34 0 0 Z " fill="#E13F00" transform="translate(274,74)"/>
<path d="M0 0 C2.64 0 5.28 0 8 0 C8 0.33 8 0.66 8 1 C5.36 1 2.72 1 0 1 C0 0.67 0 0.34 0 0 Z " fill="#E74200" transform="translate(266,73)"/>
<path d="M0 0 C2.64 0 5.28 0 8 0 C8 0.33 8 0.66 8 1 C5.36 1 2.72 1 0 1 C0 0.67 0 0.34 0 0 Z " fill="#EF4500" transform="translate(249,71)"/>
<path d="M0 0 C2.64 0 5.28 0 8 0 C8 0.33 8 0.66 8 1 C5.36 1 2.72 1 0 1 C0 0.67 0 0.34 0 0 Z " fill="#EC4500" transform="translate(241,70)"/>
<path d="M0 0 C2.64 0 5.28 0 8 0 C8 0.33 8 0.66 8 1 C5.36 1 2.72 1 0 1 C0 0.67 0 0.34 0 0 Z " fill="#FF4700" transform="translate(233,69)"/>
<path d="M0 0 C2.64 0 5.28 0 8 0 C8 0.33 8 0.66 8 1 C5.36 1 2.72 1 0 1 C0 0.67 0 0.34 0 0 Z " fill="#FF5200" transform="translate(216,67)"/>
<path d="M0 0 C2.64 0 5.28 0 8 0 C8 0.33 8 0.66 8 1 C5.36 1 2.72 1 0 1 C0 0.67 0 0.34 0 0 Z " fill="#FF4D00" transform="translate(208,66)"/>
<path d="M0 0 C2.64 0 5.28 0 8 0 C8 0.33 8 0.66 8 1 C5.36 1 2.72 1 0 1 C0 0.67 0 0.34 0 0 Z " fill="#F74200" transform="translate(200,65)"/>
<path d="M0 0 C1.65 0 3.3 0 5 0 C4.360625 0.12375 3.72125 0.2475 3.0625 0.375 C2.381875 0.58125 1.70125 0.7875 1 1 C0.67 1.66 0.34 2.32 0 3 C0 2.01 0 1.02 0 0 Z " fill="#FF5815" transform="translate(290,439)"/>
<path d="M0 0 C0.33 0 0.66 0 1 0 C1 2.31 1 4.62 1 7 C0.67 7 0.34 7 0 7 C0 4.69 0 2.38 0 0 Z " fill="#FFA409" transform="translate(27,345)"/>
<path d="M0 0 C0.33 0 0.66 0 1 0 C1 2.31 1 4.62 1 7 C0.67 7 0.34 7 0 7 C0 4.69 0 2.38 0 0 Z " fill="#FF9212" transform="translate(30,322)"/>
<path d="M0 0 C0 0.99 0 1.98 0 3 C-0.99 3.495 -0.99 3.495 -2 4 C-1.34 2.68 -0.68 1.36 0 0 Z " fill="#FF3100" transform="translate(469,202)"/>
<path d="M0 0 C0 0.99 0 1.98 0 3 C-0.99 3.495 -0.99 3.495 -2 4 C-1.34 2.68 -0.68 1.36 0 0 Z " fill="#FF6A0A" transform="translate(484,185)"/>
<path d="M0 0 C0.33 0 0.66 0 1 0 C1 1.98 1 3.96 1 6 C0.67 6 0.34 6 0 6 C0 4.02 0 2.04 0 0 Z " fill="#D4BF00" transform="translate(414,160)"/>
<path d="M0 0 C1.98 0.99 1.98 0.99 4 2 C3.01 2 2.02 2 1 2 C0.67 1.34 0.34 0.68 0 0 Z " fill="#E63800" transform="translate(364,117)"/>
<path d="M0 0 C0.33 0 0.66 0 1 0 C1 1.65 1 3.3 1 5 C0.67 5 0.34 5 0 5 C0 3.35 0 1.7 0 0 Z " fill="#FFAA11" transform="translate(71,413)"/>
<path d="M0 0 C0.33 0 0.66 0 1 0 C1 1.65 1 3.3 1 5 C0.67 5 0.34 5 0 5 C0 3.35 0 1.7 0 0 Z " fill="#FF550C" transform="translate(57,355)"/>
<path d="M0 0 C0.33 0 0.66 0 1 0 C1 1.65 1 3.3 1 5 C0.67 5 0.34 5 0 5 C0 3.35 0 1.7 0 0 Z " fill="#FF3700" transform="translate(43,262)"/>
<path d="M0 0 C0.33 0.99 0.66 1.98 1 3 C0.01 2.67 -0.98 2.34 -2 2 C-1.34 2 -0.68 2 0 2 C0 1.34 0 0.68 0 0 Z " fill="#FFC707" transform="translate(143,184)"/>
<path d="M0 0 C0.33 0 0.66 0 1 0 C1 1.65 1 3.3 1 5 C0.67 5 0.34 5 0 5 C0 3.35 0 1.7 0 0 Z " fill="#FFCC0C" transform="translate(413,166)"/>
<path d="M0 0 C1.65 0 3.3 0 5 0 C5 0.33 5 0.66 5 1 C3.35 1 1.7 1 0 1 C0 0.67 0 0.34 0 0 Z " fill="#FF0000" transform="translate(187,92)"/>
<path d="M0 0 C1 4 1 4 1 4 Z " fill="#FF9415" transform="translate(77,438)"/>
<path d="M0 0 C1 4 1 4 1 4 Z " fill="#FFCA10" transform="translate(76,434)"/>
<path d="M0 0 C1 4 1 4 1 4 Z " fill="#FFAA10" transform="translate(75,430)"/>
<path d="M0 0 C1 4 1 4 1 4 Z " fill="#FF6010" transform="translate(74,426)"/>
<path d="M0 0 C1 4 1 4 1 4 Z " fill="#FF5010" transform="translate(313,422)"/>
<path d="M0 0 C1 4 1 4 1 4 Z " fill="#FF6A10" transform="translate(73,422)"/>
<path d="M0 0 C1 4 1 4 1 4 Z " fill="#E94A00" transform="translate(314,418)"/>
<path d="M0 0 C1 4 1 4 1 4 Z " fill="#FF5510" transform="translate(72,418)"/>
<path d="M0 0 C1 4 1 4 1 4 Z " fill="#EF4500" transform="translate(315,414)"/>
<path d="M0 0 C1 4 1 4 1 4 Z " fill="#FF4A00" transform="translate(316,410)"/>
<path d="M0 0 C1 4 1 4 1 4 Z " fill="#FFD415" transform="translate(70,409)"/>
<path d="M0 0 C1 4 1 4 1 4 Z " fill="#FF4500" transform="translate(317,406)"/>
<path d="M0 0 C1 4 1 4 1 4 Z " fill="#FF6A10" transform="translate(69,405)"/>
<path d="M0 0 C1 4 1 4 1 4 Z " fill="#FF6A10" transform="translate(68,401)"/>
<path d="M0 0 C1 4 1 4 1 4 Z " fill="#FF6010" transform="translate(67,397)"/>
<path d="M0 0 C1 4 1 4 1 4 Z " fill="#FF3A00" transform="translate(321,391)"/>
<path d="M0 0 C1 4 1 4 1 4 Z " fill="#E94500" transform="translate(322,387)"/>
<path d="M0 0 C1 4 1 4 1 4 Z " fill="#FFAA10" transform="translate(64,384)"/>
<path d="M0 0 C1 4 1 4 1 4 Z " fill="#EF4500" transform="translate(323,383)"/>
<path d="M0 0 C1 4 1 4 1 4 Z " fill="#FFAA10" transform="translate(63,380)"/>
<path d="M0 0 C1 4 1 4 1 4 Z " fill="#FF4500" transform="translate(324,379)"/>
<path d="M0 0 C1 4 1 4 1 4 Z " fill="#FF6A25" transform="translate(62,376)"/>
<path d="M0 0 C1 4 1 4 1 4 Z " fill="#EF2500" transform="translate(325,375)"/>
<path d="M0 0 C1 4 1 4 1 4 Z " fill="#FF5F25" transform="translate(61,372)"/>
<path d="M0 0 C1 4 1 4 1 4 Z " fill="#FF2A00" transform="translate(326,371)"/>
<path d="M0 0 C0.99 0.33 1.98 0.66 3 1 C2.01 1.33 1.02 1.66 0 2 C0 1.34 0 0.68 0 0 Z " fill="#E29332" transform="translate(180,369)"/>
<path d="M0 0 C1 4 1 4 1 4 Z " fill="#FF4A10" transform="translate(60,368)"/>
<path d="M0 0 C0.99 0.33 1.98 0.66 3 1 C2.01 1 1.02 1 0 1 C0 0.67 0 0.34 0 0 Z " fill="#FF2500" transform="translate(9,367)"/>
<path d="M0 0 C1 4 1 4 1 4 Z " fill="#EF4500" transform="translate(328,364)"/>
<path d="M0 0 C1 4 1 4 1 4 Z " fill="#FF4A10" transform="translate(59,364)"/>
<path d="M0 0 C1 4 1 4 1 4 Z " fill="#EF5000" transform="translate(330,356)"/>
<path d="M0 0 C1 4 1 4 1 4 Z " fill="#EF2500" transform="translate(331,352)"/>
<path d="M0 0 C1 4 1 4 1 4 Z " fill="#EF2500" transform="translate(332,348)"/>
<path d="M0 0 C1 4 1 4 1 4 Z " fill="#FF2A00" transform="translate(334,340)"/>
<path d="M0 0 C1 4 1 4 1 4 Z " fill="#9A4500" transform="translate(336,333)"/>
<path d="M0 0 C1 4 1 4 1 4 Z " fill="#AF5F30" transform="translate(337,329)"/>
<path d="M0 0 C1 4 1 4 1 4 Z " fill="#E93A00" transform="translate(32,310)"/>
<path d="M0 0 C1 4 1 4 1 4 Z " fill="#EF4000" transform="translate(33,306)"/>
<path d="M0 0 C1 4 1 4 1 4 Z " fill="#FF3A00" transform="translate(35,297)"/>
<path d="M0 0 C1 4 1 4 1 4 Z " fill="#EF4500" transform="translate(36,293)"/>
<path d="M0 0 C1 4 1 4 1 4 Z " fill="#FF4500" transform="translate(38,284)"/>
<path d="M0 0 C1 4 1 4 1 4 Z " fill="#FF4A00" transform="translate(39,280)"/>
<path d="M0 0 C1 4 1 4 1 4 Z " fill="#EF4500" transform="translate(40,275)"/>
<path d="M0 0 C4 1 4 1 4 1 Z " fill="#FF9A30" transform="translate(365,273)"/>
<path d="M0 0 C1 4 1 4 1 4 Z " fill="#FF4510" transform="translate(41,271)"/>
<path d="M0 0 C4 1 4 1 4 1 Z " fill="#E99A10" transform="translate(375,270)"/>
<path d="M0 0 C1 4 1 4 1 4 Z " fill="#FF6500" transform="translate(42,267)"/>
<path d="M0 0 C1 4 1 4 1 4 Z " fill="#FF5000" transform="translate(44,258)"/>
<path d="M0 0 C1 4 1 4 1 4 Z " fill="#FF2500" transform="translate(45,254)"/>
<path d="M0 0 C1 4 1 4 1 4 Z " fill="#FF2A00" transform="translate(46,250)"/>
<path d="M0 0 C1 4 1 4 1 4 Z " fill="#8F4500" transform="translate(47,245)"/>
<path d="M0 0 C1 4 1 4 1 4 Z " fill="#FF5000" transform="translate(48,241)"/>
<path d="M0 0 C1 4 1 4 1 4 Z " fill="#FF4500" transform="translate(49,237)"/>
<path d="M0 0 C1 4 1 4 1 4 Z " fill="#FF4500" transform="translate(50,233)"/>
<path d="M0 0 C1 4 1 4 1 4 Z " fill="#FF4500" transform="translate(51,229)"/>
<path d="M0 0 C1 4 1 4 1 4 Z " fill="#EF2500" transform="translate(52,225)"/>
<path d="M0 0 C1 4 1 4 1 4 Z " fill="#EF6500" transform="translate(53,221)"/>
<path d="M0 0 C1 4 1 4 1 4 Z " fill="#FF7500" transform="translate(54,217)"/>
<path d="M0 0 C0 3 0 3 0 3 Z " fill="#FF9400" transform="translate(461,211)"/>
<path d="M0 0 C4 1 4 1 4 1 Z " fill="#FF8A15" transform="translate(58,210)"/>
<path d="M0 0 C0.99 0.495 0.99 0.495 2 1 C1.67 1.66 1.34 2.32 1 3 C0.67 2.01 0.34 1.02 0 0 Z " fill="#FF8410" transform="translate(441,208)"/>
<path d="M0 0 C4 1 4 1 4 1 Z " fill="#E97510" transform="translate(72,206)"/>
<path d="M0 0 C0.99 0.495 0.99 0.495 2 1 C1.67 1.66 1.34 2.32 1 3 C0.67 2.01 0.34 1.02 0 0 Z " fill="#FF8F10" transform="translate(433,197)"/>
<path d="M0 0 C0 3 0 3 0 3 Z " fill="#FF7F10" transform="translate(476,194)"/>
<path d="M0 0 C4 1 4 1 4 1 Z " fill="#FF6A25" transform="translate(127,190)"/>
<path d="M0 0 C1 4 1 4 1 4 Z " fill="#DFBF00" transform="translate(144,180)"/>
<path d="M0 0 C0 3 0 3 0 3 Z " fill="#FF8A00" transform="translate(491,177)"/>
<path d="M0 0 C1 4 1 4 1 4 Z " fill="#EF9F10" transform="translate(145,176)"/>
<path d="M0 0 C1 4 1 4 1 4 Z " fill="#BF8A10" transform="translate(149,159)"/>
<path d="M0 0 C1 4 1 4 1 4 Z " fill="#BF6A10" transform="translate(150,155)"/>
<path d="M0 0 C1 4 1 4 1 4 Z " fill="#FF6A10" transform="translate(151,151)"/>
<path d="M0 0 C0.99 0.33 1.98 0.66 3 1 C2.01 1 1.02 1 0 1 C0 0.67 0 0.34 0 0 Z " fill="#9A3525" transform="translate(405,152)"/>
<path d="M0 0 C1 4 1 4 1 4 Z " fill="#FF7525" transform="translate(152,147)"/>
<path d="M0 0 C0.99 0.33 1.98 0.66 3 1 C2.01 1 1.02 1 0 1 C0 0.67 0 0.34 0 0 Z " fill="#AA3525" transform="translate(398,146)"/>
<path d="M0 0 C1 4 1 4 1 4 Z " fill="#FF6A10" transform="translate(153,143)"/>
<path d="M0 0 C0.99 0.33 1.98 0.66 3 1 C2.01 1 1.02 1 0 1 C0 0.67 0 0.34 0 0 Z " fill="#FF5515" transform="translate(392,141)"/>
<path d="M0 0 C1 4 1 4 1 4 Z " fill="#FF6A10" transform="translate(154,139)"/>
<path d="M0 0 C1 4 1 4 1 4 Z " fill="#FFB415" transform="translate(155,135)"/>
<path d="M0 0 C0.99 0.33 1.98 0.66 3 1 C2.01 1 1.02 1 0 1 C0 0.67 0 0.34 0 0 Z " fill="#FF5515" transform="translate(385,135)"/>
<path d="M0 0 C1 4 1 4 1 4 Z " fill="#FFD42A" transform="translate(156,131)"/>
<path d="M0 0 C0.99 0.33 1.98 0.66 3 1 C2.01 1 1.02 1 0 1 C0 0.67 0 0.34 0 0 Z " fill="#AF6010" transform="translate(378,129)"/>
<path d="M0 0 C1 4 1 4 1 4 Z " fill="#DFB415" transform="translate(157,127)"/>
<path d="M0 0 C1 4 1 4 1 4 Z " fill="#FFAA25" transform="translate(158,123)"/>
<path d="M0 0 C0.99 0.33 1.98 0.66 3 1 C2.01 1 1.02 1 0 1 C0 0.67 0 0.34 0 0 Z " fill="#EF4010" transform="translate(371,123)"/>
<path d="M0 0 C1 4 1 4 1 4 Z " fill="#9F6A10" transform="translate(160,114)"/>
<path d="M0 0 C1 4 1 4 1 4 Z " fill="#FF6A10" transform="translate(161,110)"/>
<path d="M0 0 C1 4 1 4 1 4 Z " fill="#FF6010" transform="translate(162,106)"/>
<path d="M0 0 C0.99 0.33 1.98 0.66 3 1 C2.01 1 1.02 1 0 1 C0 0.67 0 0.34 0 0 Z " fill="#FF7F00" transform="translate(351,106)"/>
<path d="M0 0 C1 4 1 4 1 4 Z " fill="#FF6010" transform="translate(163,102)"/>
<path d="M0 0 C1 4 1 4 1 4 Z " fill="#FF9F10" transform="translate(164,98)"/>
<path d="M0 0 C1 4 1 4 1 4 Z " fill="#FF6A10" transform="translate(165,94)"/>
<path d="M0 0 C0.99 0.33 1.98 0.66 3 1 C2.01 1 1.02 1 0 1 C0 0.67 0 0.34 0 0 Z " fill="#DF5500" transform="translate(337,94)"/>
<path d="M0 0 C0.99 0.33 1.98 0.66 3 1 C2.01 1 1.02 1 0 1 C0 0.67 0 0.34 0 0 Z " fill="#EF7F10" transform="translate(330,88)"/>
<path d="M0 0 C0.99 0.33 1.98 0.66 3 1 C2.01 1 1.02 1 0 1 C0 0.67 0 0.34 0 0 Z " fill="#BF6A25" transform="translate(323,82)"/>
<path d="" fill="#FF8D38" transform="translate(0,0)"/>
<path d="" fill="#FFAA15" transform="translate(0,0)"/>
<path d="" fill="#E23100" transform="translate(0,0)"/>
<path d="" fill="#FF4700" transform="translate(0,0)"/>
<path d="" fill="#E9AA15" transform="translate(0,0)"/>
<path d="" fill="#FF7100" transform="translate(0,0)"/>
<path d="" fill="#FF6A15" transform="translate(0,0)"/>
<path d="" fill="#FFAA15" transform="translate(0,0)"/>
<path d="" fill="#FF4700" transform="translate(0,0)"/>
<path d="" fill="#FFB800" transform="translate(0,0)"/>
<path d="" fill="#FF3800" transform="translate(0,0)"/>
<path d="" fill="#FF7100" transform="translate(0,0)"/>
<path d="" fill="#E94000" transform="translate(0,0)"/>
<path d="" fill="#FFB800" transform="translate(0,0)"/>
<path d="" fill="#E93100" transform="translate(0,0)"/>
<path d="" fill="#E93100" transform="translate(0,0)"/>
<path d="" fill="#FF5C00" transform="translate(0,0)"/>
<path d="" fill="#FFAA15" transform="translate(0,0)"/>
<path d="" fill="#FF3800" transform="translate(0,0)"/>
<path d="" fill="#FF5C00" transform="translate(0,0)"/>
<path d="" fill="#FF631C" transform="translate(0,0)"/>
<path d="" fill="#E91500" transform="translate(0,0)"/>
<path d="" fill="#FFAA15" transform="translate(0,0)"/>
<path d="" fill="#E93100" transform="translate(0,0)"/>
<path d="" fill="#FF7100" transform="translate(0,0)"/>
<path d="" fill="#FF3800" transform="translate(0,0)"/>
<path d="M0 0 C3 1 3 1 3 1 Z " fill="#FFE915" transform="translate(207,378)"/>
<path d="M0 0 C3 1 3 1 3 1 Z " fill="#FFE915" transform="translate(204,377)"/>
<path d="" fill="#BF4000" transform="translate(0,0)"/>
<path d="M0 0 C3 1 3 1 3 1 Z " fill="#FFE238" transform="translate(201,376)"/>
<path d="M0 0 C3 1 3 1 3 1 Z " fill="#FFE238" transform="translate(198,375)"/>
<path d="M0 0 C3 1 3 1 3 1 Z " fill="#FFE238" transform="translate(195,374)"/>
<path d="M0 0 C3 1 3 1 3 1 Z " fill="#FFE238" transform="translate(192,373)"/>
<path d="M0 0 C3 1 3 1 3 1 Z " fill="#FF8D38" transform="translate(189,372)"/>
<path d="" fill="#FF1C00" transform="translate(0,0)"/>
<path d="M0 0 C3 1 3 1 3 1 Z " fill="#FF8D38" transform="translate(186,371)"/>
<path d="M0 0 C3 1 3 1 3 1 Z " fill="#FF8D38" transform="translate(183,370)"/>
<path d="" fill="#FF5C00" transform="translate(0,0)"/>
<path d="" fill="#FF6A00" transform="translate(0,0)"/>
<path d="" fill="#FF7115" transform="translate(0,0)"/>
<path d="M0 0 C3 1 3 1 3 1 Z " fill="#FF4700" transform="translate(11,357)"/>
<path d="" fill="#FF3800" transform="translate(0,0)"/>
<path d="" fill="#E23800" transform="translate(0,0)"/>
<path d="" fill="#FF8D1C" transform="translate(0,0)"/>
<path d="" fill="#FFE238" transform="translate(0,0)"/>
<path d="" fill="#FF7831" transform="translate(0,0)"/>
<path d="" fill="#FFBF15" transform="translate(0,0)"/>
<path d="" fill="#FF7831" transform="translate(0,0)"/>
<path d="" fill="#FFBF15" transform="translate(0,0)"/>
<path d="" fill="#FFCD31" transform="translate(0,0)"/>
<path d="" fill="#FFE915" transform="translate(0,0)"/>
<path d="" fill="#FFCD15" transform="translate(0,0)"/>
<path d="M0 0 C3 1 3 1 3 1 Z " fill="#FFA331" transform="translate(362,274)"/>
<path d="M0 0 C3 1 3 1 3 1 Z " fill="#FFD42A" transform="translate(369,272)"/>
<path d="M0 0 C3 1 3 1 3 1 Z " fill="#FF711C" transform="translate(440,271)"/>
<path d="M0 0 C3 1 3 1 3 1 Z " fill="#FFA315" transform="translate(372,271)"/>
<path d="M0 0 C3 1 3 1 3 1 Z " fill="#FFD415" transform="translate(445,269)"/>
<path d="M0 0 C3 1 3 1 3 1 Z " fill="#FFE931" transform="translate(379,269)"/>
<path d="M0 0 C3 1 3 1 3 1 Z " fill="#FF7100" transform="translate(448,268)"/>
<path d="M0 0 C3 1 3 1 3 1 Z " fill="#FFE915" transform="translate(382,268)"/>
<path d="M0 0 C3 1 3 1 3 1 Z " fill="#FFE238" transform="translate(389,266)"/>
<path d="M0 0 C3 1 3 1 3 1 Z " fill="#FF711C" transform="translate(456,265)"/>
<path d="M0 0 C3 1 3 1 3 1 Z " fill="#FFE915" transform="translate(392,265)"/>
<path d="M0 0 C3 1 3 1 3 1 Z " fill="#FFFF1C" transform="translate(399,263)"/>
<path d="M0 0 C3 1 3 1 3 1 Z " fill="#FFAA15" transform="translate(464,262)"/>
<path d="M0 0 C3 1 3 1 3 1 Z " fill="#FFBF15" transform="translate(402,262)"/>
<path d="M0 0 C3 1 3 1 3 1 Z " fill="#FF7100" transform="translate(467,261)"/>
<path d="M0 0 C3 1 3 1 3 1 Z " fill="#FFE915" transform="translate(405,261)"/>
<path d="M0 0 C3 1 3 1 3 1 Z " fill="#D4AA15" transform="translate(472,259)"/>
<path d="" fill="#FF8000" transform="translate(0,0)"/>
<path d="M0 0 C3 1 3 1 3 1 Z " fill="#FF711C" transform="translate(62,209)"/>
<path d="M0 0 C3 1 3 1 3 1 Z " fill="#FF8015" transform="translate(66,208)"/>
<path d="M0 0 C3 1 3 1 3 1 Z " fill="#FFC600" transform="translate(69,207)"/>
<path d="M0 0 C3 1 3 1 3 1 Z " fill="#FFB815" transform="translate(76,205)"/>
<path d="M0 0 C3 1 3 1 3 1 Z " fill="#FFB815" transform="translate(83,203)"/>
<path d="M0 0 C3 1 3 1 3 1 Z " fill="#FF8015" transform="translate(90,201)"/>
<path d="M0 0 C3 1 3 1 3 1 Z " fill="#E98015" transform="translate(97,199)"/>
<path d="M0 0 C3 1 3 1 3 1 Z " fill="#FFC638" transform="translate(100,198)"/>
<path d="M0 0 C3 1 3 1 3 1 Z " fill="#FF8E15" transform="translate(104,197)"/>
<path d="M0 0 C3 1 3 1 3 1 Z " fill="#FFB831" transform="translate(107,196)"/>
<path d="M0 0 C3 1 3 1 3 1 Z " fill="#FF8E31" transform="translate(114,194)"/>
<path d="M0 0 C3 1 3 1 3 1 Z " fill="#FF8015" transform="translate(121,192)"/>
<path d="M0 0 C3 1 3 1 3 1 Z " fill="#E9B831" transform="translate(124,191)"/>
<path d="M0 0 C3 1 3 1 3 1 Z " fill="#FF7115" transform="translate(131,189)"/>
<path d="M0 0 C3 1 3 1 3 1 Z " fill="#FF6315" transform="translate(134,188)"/>
<path d="M0 0 C3 1 3 1 3 1 Z " fill="#FF8015" transform="translate(138,187)"/>
<path d="" fill="#FF8E31" transform="translate(0,0)"/>
<path d="" fill="#D48E15" transform="translate(0,0)"/>
<path d="" fill="#FFDF20" transform="translate(0,0)"/>
<path d="" fill="#FF952A" transform="translate(0,0)"/>
<path d="M0 0 C2 1 2 1 2 1 Z " fill="#FF0000" transform="translate(151,438)"/>
<path d="" fill="#FF9520" transform="translate(0,0)"/>
<path d="" fill="#FF6A00" transform="translate(0,0)"/>
<path d="" fill="#FF8020" transform="translate(0,0)"/>
<path d="" fill="#FF6A00" transform="translate(0,0)"/>
<path d="" fill="#D45500" transform="translate(0,0)"/>
<path d="" fill="#FF9520" transform="translate(0,0)"/>
<path d="" fill="#DF2020" transform="translate(0,0)"/>
<path d="" fill="#FF8020" transform="translate(0,0)"/>
<path d="" fill="#D45500" transform="translate(0,0)"/>
<path d="" fill="#FF952A" transform="translate(0,0)"/>
<path d="" fill="#DF6000" transform="translate(0,0)"/>
<path d="" fill="#FF8020" transform="translate(0,0)"/>
<path d="" fill="#FFAA00" transform="translate(0,0)"/>
<path d="" fill="#FF6000" transform="translate(0,0)"/>
<path d="" fill="#FF8020" transform="translate(0,0)"/>
<path d="" fill="#DF4A00" transform="translate(0,0)"/>
<path d="" fill="#FFBF20" transform="translate(0,0)"/>
<path d="" fill="#FF7F2A" transform="translate(0,0)"/>
<path d="" fill="#FF6000" transform="translate(0,0)"/>
<path d="" fill="#FF8020" transform="translate(0,0)"/>
<path d="" fill="#BF2000" transform="translate(0,0)"/>
<path d="" fill="#FFBF20" transform="translate(0,0)"/>
<path d="M0 0 C2 1 2 1 2 1 Z " fill="#FFBF20" transform="translate(29,380)"/>
<path d="M0 0 C2 1 2 1 2 1 Z " fill="#FFE519" transform="translate(210,379)"/>
<path d="" fill="#FF8000" transform="translate(0,0)"/>
<path d="M0 0 C2 1 2 1 2 1 Z " fill="#FF9500" transform="translate(26,378)"/>
<path d="M0 0 C2 1 2 1 2 1 Z " fill="#FF8000" transform="translate(23,376)"/>
<path d="" fill="#D45500" transform="translate(0,0)"/>
<path d="" fill="#FFBF20" transform="translate(0,0)"/>
<path d="M0 0 C2 1 2 1 2 1 Z " fill="#DF2000" transform="translate(21,375)"/>
<path d="" fill="#FF952A" transform="translate(0,0)"/>
<path d="M0 0 C2 1 2 1 2 1 Z " fill="#DF2000" transform="translate(18,373)"/>
<path d="M0 0 C2 1 2 1 2 1 Z " fill="#BF2A00" transform="translate(15,371)"/>
<path d="" fill="#FFBF20" transform="translate(0,0)"/>
<path d="M0 0 C2 1 2 1 2 1 Z " fill="#FF8000" transform="translate(12,369)"/>
<path d="" fill="#FF952A" transform="translate(0,0)"/>
<path d="M0 0 C2 1 2 1 2 1 Z " fill="#FF2000" transform="translate(7,366)"/>
<path d="" fill="#FF4C19" transform="translate(0,0)"/>
<path d="M0 0 C2 1 2 1 2 1 Z " fill="#FF2A00" transform="translate(4,364)"/>
<path d="" fill="#FF8020" transform="translate(0,0)"/>
<path d="M0 0 C2 1 2 1 2 1 Z " fill="#FF6A00" transform="translate(1,362)"/>
<path d="M0 0 C2 1 2 1 2 1 Z " fill="#FF6A00" transform="translate(21,361)"/>
<path d="M0 0 C2 1 2 1 2 1 Z " fill="#D45500" transform="translate(16,359)"/>
<path d="" fill="#FF8020" transform="translate(0,0)"/>
<path d="M0 0 C2 1 2 1 2 1 Z " fill="#9F2000" transform="translate(14,358)"/>
<path d="M0 0 C2 1 2 1 2 1 Z " fill="#DF6000" transform="translate(9,356)"/>
<path d="M0 0 C2 1 2 1 2 1 Z " fill="#FF6A00" transform="translate(4,354)"/>
<path d="M0 0 C2 1 2 1 2 1 Z " fill="#FF8000" transform="translate(2,353)"/>
<path d="" fill="#FF9F20" transform="translate(0,0)"/>
<path d="" fill="#FFDF20" transform="translate(0,0)"/>
<path d="" fill="#FFD455" transform="translate(0,0)"/>
<path d="" fill="#FFDF20" transform="translate(0,0)"/>
<path d="" fill="#FFAA55" transform="translate(0,0)"/>
<path d="" fill="#FFDF20" transform="translate(0,0)"/>
<path d="" fill="#FF9F20" transform="translate(0,0)"/>
<path d="" fill="#FFD42A" transform="translate(0,0)"/>
<path d="M0 0 C2 1 2 1 2 1 Z " fill="#D49520" transform="translate(443,270)"/>
<path d="M0 0 C2 1 2 1 2 1 Z " fill="#FF952A" transform="translate(451,267)"/>
<path d="M0 0 C2 1 2 1 2 1 Z " fill="#FFAA00" transform="translate(459,264)"/>
<path d="M0 0 C2 1 2 1 2 1 Z " fill="#FF9500" transform="translate(462,263)"/>
<path d="M0 0 C2 1 2 1 2 1 Z " fill="#FF952A" transform="translate(470,260)"/>
<path d="" fill="#BF6A00" transform="translate(0,0)"/>
<path d="" fill="#FF2A00" transform="translate(0,0)"/>
<path d="" fill="#FF4020" transform="translate(0,0)"/>
<path d="" fill="#BF8020" transform="translate(0,0)"/>
<path d="" fill="#FF6A00" transform="translate(0,0)"/>
<path d="" fill="#FF6A00" transform="translate(0,0)"/>
<path d="" fill="#FF4020" transform="translate(0,0)"/>
<path d="" fill="#FFBF20" transform="translate(0,0)"/>
<path d="" fill="#FF6A00" transform="translate(0,0)"/>
<path d="" fill="#FF6A00" transform="translate(0,0)"/>
<path d="" fill="#FF9500" transform="translate(0,0)"/>
<path d="" fill="#FF4020" transform="translate(0,0)"/>
<path d="" fill="#FF8020" transform="translate(0,0)"/>
<path d="" fill="#FF9500" transform="translate(0,0)"/>
<path d="" fill="#FF7F00" transform="translate(0,0)"/>
<path d="" fill="#FFD400" transform="translate(0,0)"/>
<path d="" fill="#FFBF00" transform="translate(0,0)"/>
<path d="" fill="#E53319" transform="translate(0,0)"/>
<path d="" fill="#FFBF20" transform="translate(0,0)"/>
<path d="" fill="#FFBF20" transform="translate(0,0)"/>
<path d="" fill="#FF9500" transform="translate(0,0)"/>
<path d="" fill="#FFBF00" transform="translate(0,0)"/>
<path d="" fill="#FF5500" transform="translate(0,0)"/>
<path d="" fill="#FF6A00" transform="translate(0,0)"/>
<path d="" fill="#FF4020" transform="translate(0,0)"/>
<path d="" fill="#FFBF20" transform="translate(0,0)"/>
<path d="" fill="#FFBF00" transform="translate(0,0)"/>
<path d="" fill="#FF6A00" transform="translate(0,0)"/>
<path d="" fill="#D46A00" transform="translate(0,0)"/>
<path d="" fill="#FF9500" transform="translate(0,0)"/>
<path d="" fill="#D46A00" transform="translate(0,0)"/>
<path d="" fill="#FF4020" transform="translate(0,0)"/>
<path d="" fill="#FFBF20" transform="translate(0,0)"/>
<path d="" fill="#FF4020" transform="translate(0,0)"/>
<path d="" fill="#FF8000" transform="translate(0,0)"/>
<path d="" fill="#FF6A00" transform="translate(0,0)"/>
<path d="" fill="#FFBF20" transform="translate(0,0)"/>
<path d="" fill="#FF8000" transform="translate(0,0)"/>
<path d="" fill="#FF4020" transform="translate(0,0)"/>
<path d="" fill="#FF3319" transform="translate(0,0)"/>
<path d="" fill="#FFD400" transform="translate(0,0)"/>
<path d="M0 0 C2 1 2 1 2 1 Z " fill="#DF4000" transform="translate(344,100)"/>
<path d="" fill="#FF8020" transform="translate(0,0)"/>
<path d="" fill="#FF8000" transform="translate(0,0)"/>
<path d="" fill="#FF6000" transform="translate(0,0)"/>
<path d="" fill="#FF6000" transform="translate(0,0)"/>
<path d="" fill="#FF6000" transform="translate(0,0)"/>
<path d="" fill="#FF6A00" transform="translate(0,0)"/>
<path d="" fill="#D45500" transform="translate(0,0)"/>
<path d="" fill="#FF6A00" transform="translate(0,0)"/>
<path d="" fill="#FF6A00" transform="translate(0,0)"/>
<path d="" fill="#FF6A00" transform="translate(0,0)"/>
<path d="" fill="#FF6A00" transform="translate(0,0)"/>
<path d="" fill="#FF6A00" transform="translate(0,0)"/>
<path d="" fill="#FF0000" transform="translate(0,0)"/>
<path d="" fill="#FF8040" transform="translate(0,0)"/>
<path d="" fill="#FF0000" transform="translate(0,0)"/>
<path d="" fill="#FF0000" transform="translate(0,0)"/>
<path d="" fill="#FF0000" transform="translate(0,0)"/>
<path d="" fill="#FFAA00" transform="translate(0,0)"/>
<path d="" fill="#FF8040" transform="translate(0,0)"/>
<path d="" fill="#FFAA55" transform="translate(0,0)"/>
<path d="" fill="#FF8000" transform="translate(0,0)"/>
<path d="" fill="#FF8040" transform="translate(0,0)"/>
<path d="" fill="#FF5500" transform="translate(0,0)"/>
<path d="" fill="#BF4000" transform="translate(0,0)"/>
<path d="" fill="#FFAA00" transform="translate(0,0)"/>
<path d="" fill="#BF4000" transform="translate(0,0)"/>
<path d="" fill="#BF8000" transform="translate(0,0)"/>
<path d="" fill="#BF4000" transform="translate(0,0)"/>
<path d="" fill="#CC6633" transform="translate(0,0)"/>
<path d="" fill="#FF8040" transform="translate(0,0)"/>
<path d="" fill="#BF4000" transform="translate(0,0)"/>
<path d="" fill="#FF8000" transform="translate(0,0)"/>
<path d="" fill="#FFAA00" transform="translate(0,0)"/>
<path d="" fill="#FFAA00" transform="translate(0,0)"/>
<path d="" fill="#FFBF40" transform="translate(0,0)"/>
<path d="" fill="#FF9933" transform="translate(0,0)"/>
<path d="" fill="#FF8000" transform="translate(0,0)"/>
<path d="" fill="#FFAA00" transform="translate(0,0)"/>
<path d="" fill="#FFAA00" transform="translate(0,0)"/>
<path d="" fill="#BF8040" transform="translate(0,0)"/>
<path d="" fill="#FFFF00" transform="translate(0,0)"/>
<path d="" fill="#FF8040" transform="translate(0,0)"/>
<path d="" fill="#FF9933" transform="translate(0,0)"/>
<path d="" fill="#FF9933" transform="translate(0,0)"/>
<path d="" fill="#FF9933" transform="translate(0,0)"/>
<path d="" fill="#FF8040" transform="translate(0,0)"/>
<path d="" fill="#FFBF40" transform="translate(0,0)"/>
<path d="" fill="#FF9933" transform="translate(0,0)"/>
<path d="" fill="#FF5500" transform="translate(0,0)"/>
<path d="" fill="#FF8000" transform="translate(0,0)"/>
<path d="" fill="#FFAA00" transform="translate(0,0)"/>
<path d="" fill="#FFAA00" transform="translate(0,0)"/>
<path d="" fill="#BF4000" transform="translate(0,0)"/>
<path d="" fill="#BF8000" transform="translate(0,0)"/>
<path d="" fill="#FF9933" transform="translate(0,0)"/>
<path d="" fill="#BF8000" transform="translate(0,0)"/>
<path d="" fill="#FF5500" transform="translate(0,0)"/>
<path d="" fill="#FFBF40" transform="translate(0,0)"/>
<path d="" fill="#BF4000" transform="translate(0,0)"/>
<path d="" fill="#FF8040" transform="translate(0,0)"/>
<path d="" fill="#CC6633" transform="translate(0,0)"/>
<path d="" fill="#FFAA00" transform="translate(0,0)"/>
<path d="" fill="#FF8000" transform="translate(0,0)"/>
<path d="" fill="#FFBF40" transform="translate(0,0)"/>
<path d="" fill="#808000" transform="translate(0,0)"/>
<path d="" fill="#FF8040" transform="translate(0,0)"/>
<path d="" fill="#FF0000" transform="translate(0,0)"/>
<path d="" fill="#FF5500" transform="translate(0,0)"/>
<path d="" fill="#FF5500" transform="translate(0,0)"/>
<path d="" fill="#FF8040" transform="translate(0,0)"/>
<path d="" fill="#BF8000" transform="translate(0,0)"/>
<path d="" fill="#FF8040" transform="translate(0,0)"/>
<path d="" fill="#FF8040" transform="translate(0,0)"/>
<path d="" fill="#CC6633" transform="translate(0,0)"/>
<path d="" fill="#FFAA00" transform="translate(0,0)"/>
<path d="" fill="#FF8040" transform="translate(0,0)"/>
<path d="" fill="#FF5500" transform="translate(0,0)"/>
<path d="" fill="#CC6633" transform="translate(0,0)"/>
<path d="" fill="#FF8040" transform="translate(0,0)"/>
<path d="" fill="#FF8040" transform="translate(0,0)"/>
<path d="" fill="#FF9933" transform="translate(0,0)"/>
<path d="" fill="#FF8000" transform="translate(0,0)"/>
<path d="" fill="#BF8000" transform="translate(0,0)"/>
<path d="" fill="#CC9933" transform="translate(0,0)"/>
<path d="" fill="#FF8000" transform="translate(0,0)"/>
<path d="" fill="#FFAA00" transform="translate(0,0)"/>
<path d="" fill="#FF5500" transform="translate(0,0)"/>
<path d="" fill="#FFBF40" transform="translate(0,0)"/>
<path d="" fill="#FF8040" transform="translate(0,0)"/>
<path d="" fill="#FF8040" transform="translate(0,0)"/>
<path d="" fill="#FF6633" transform="translate(0,0)"/>
<path d="" fill="#FF8040" transform="translate(0,0)"/>
<path d="" fill="#FF8040" transform="translate(0,0)"/>
<path d="" fill="#FF5500" transform="translate(0,0)"/>
<path d="" fill="#FF8040" transform="translate(0,0)"/>
<path d="" fill="#FF8000" transform="translate(0,0)"/>
<path d="" fill="#FF8040" transform="translate(0,0)"/>
<path d="" fill="#FFAA00" transform="translate(0,0)"/>
<path d="" fill="#FF5500" transform="translate(0,0)"/>
<path d="" fill="#FF9933" transform="translate(0,0)"/>
<path d="" fill="#FF8040" transform="translate(0,0)"/>
<path d="" fill="#FFAA00" transform="translate(0,0)"/>
<path d="" fill="#FF8000" transform="translate(0,0)"/>
<path d="" fill="#FF8000" transform="translate(0,0)"/>
<path d="" fill="#FF8040" transform="translate(0,0)"/>
<path d="" fill="#FF8040" transform="translate(0,0)"/>
<path d="" fill="#FF6633" transform="translate(0,0)"/>
<path d="" fill="#FF9933" transform="translate(0,0)"/>
<path d="" fill="#FF8000" transform="translate(0,0)"/>
<path d="" fill="#FF8040" transform="translate(0,0)"/>
<path d="" fill="#FFAA00" transform="translate(0,0)"/>
<path d="" fill="#FF5500" transform="translate(0,0)"/>
<path d="" fill="#FF8000" transform="translate(0,0)"/>
<path d="" fill="#FF8040" transform="translate(0,0)"/>
<path d="" fill="#FF8040" transform="translate(0,0)"/>
<path d="" fill="#FF6633" transform="translate(0,0)"/>
<path d="" fill="#FF8000" transform="translate(0,0)"/>
<path d="" fill="#FFFF00" transform="translate(0,0)"/>
<path d="" fill="#FFAA00" transform="translate(0,0)"/>
<path d="" fill="#FF8000" transform="translate(0,0)"/>
<path d="" fill="#808000" transform="translate(0,0)"/>
<path d="" fill="#FFFF00" transform="translate(0,0)"/>
<path d="" fill="#CC6633" transform="translate(0,0)"/>
<path d="" fill="#CC3333" transform="translate(0,0)"/>
<path d="" fill="#BF4000" transform="translate(0,0)"/>
<path d="" fill="#FF8000" transform="translate(0,0)"/>
<path d="" fill="#CC6633" transform="translate(0,0)"/>
<path d="" fill="#BF4040" transform="translate(0,0)"/>
<path d="" fill="#FF5500" transform="translate(0,0)"/>
<path d="" fill="#FF8000" transform="translate(0,0)"/>
<path d="" fill="#CC6633" transform="translate(0,0)"/>
<path d="" fill="#BF8040" transform="translate(0,0)"/>
<path d="" fill="#AA5500" transform="translate(0,0)"/>
<path d="" fill="#FF8040" transform="translate(0,0)"/>
<path d="" fill="#CC6633" transform="translate(0,0)"/>
<path d="" fill="#BF4040" transform="translate(0,0)"/>
<path d="" fill="#AA5500" transform="translate(0,0)"/>
<path d="" fill="#FF8040" transform="translate(0,0)"/>
<path d="" fill="#CC6633" transform="translate(0,0)"/>
<path d="" fill="#BF8040" transform="translate(0,0)"/>
<path d="" fill="#AA5500" transform="translate(0,0)"/>
<path d="" fill="#FF8040" transform="translate(0,0)"/>
<path d="" fill="#CC6633" transform="translate(0,0)"/>
<path d="" fill="#BF8040" transform="translate(0,0)"/>
<path d="" fill="#AA5500" transform="translate(0,0)"/>
<path d="" fill="#CC6633" transform="translate(0,0)"/>
<path d="" fill="#FF8040" transform="translate(0,0)"/>
<path d="" fill="#BF4040" transform="translate(0,0)"/>
<path d="" fill="#CC6633" transform="translate(0,0)"/>
<path d="" fill="#FF8040" transform="translate(0,0)"/>
<path d="" fill="#FF5500" transform="translate(0,0)"/>
<path d="" fill="#FF8040" transform="translate(0,0)"/>
<path d="" fill="#CC6633" transform="translate(0,0)"/>
<path d="" fill="#FF8040" transform="translate(0,0)"/>
<path d="" fill="#FF5500" transform="translate(0,0)"/>
<path d="" fill="#FF8040" transform="translate(0,0)"/>
<path d="" fill="#CC6633" transform="translate(0,0)"/>
<path d="" fill="#FF8040" transform="translate(0,0)"/>
<path d="" fill="#FF5500" transform="translate(0,0)"/>
<path d="" fill="#FF8000" transform="translate(0,0)"/>
<path d="" fill="#FF8040" transform="translate(0,0)"/>
<path d="" fill="#FF8040" transform="translate(0,0)"/>
<path d="" fill="#FF8040" transform="translate(0,0)"/>
<path d="" fill="#FF5500" transform="translate(0,0)"/>
<path d="" fill="#CC6633" transform="translate(0,0)"/>
<path d="" fill="#FF8040" transform="translate(0,0)"/>
<path d="" fill="#BF8000" transform="translate(0,0)"/>
<path d="" fill="#FF5500" transform="translate(0,0)"/>
<path d="" fill="#FF8040" transform="translate(0,0)"/>
<path d="" fill="#FF6633" transform="translate(0,0)"/>
<path d="" fill="#BF8040" transform="translate(0,0)"/>
<path d="" fill="#FF8000" transform="translate(0,0)"/>
<path d="" fill="#FF8000" transform="translate(0,0)"/>
<path d="" fill="#BF8040" transform="translate(0,0)"/>
<path d="" fill="#FF0000" transform="translate(0,0)"/>
</svg>
